<svg width="606" height="91" viewBox="0 0 606 91" fill="none" xmlns="http://www.w3.org/2000/svg">
<path d="M168.293 45.861C170.831 53.8369 178.203 59.577 186.964 59.577C197.9 59.577 206.722 50.6949 206.722 39.7583V1.45015C206.722 0.845921 206.299 0.362537 205.574 0.362537C205.091 0.362537 204.668 0.845921 204.668 1.45015V39.7583C204.607 49.4864 196.692 57.281 186.964 57.4622C179.23 57.4622 172.523 52.3263 170.348 45.1964C170.045 44.5921 169.562 44.3505 168.897 44.5317C168.354 44.713 168.052 45.3776 168.293 45.861ZM221.768 42.8399C221.768 52.145 229.2 59.577 238.323 59.577C247.568 59.577 255.061 52.145 255.061 42.8399V19.2145C255.061 18.6103 254.577 18.1269 253.973 18.1269C253.49 18.1269 252.885 18.6103 252.885 19.2145V42.8399C252.885 50.9366 246.36 57.4622 238.323 57.4622C230.408 57.4622 223.882 50.9366 223.882 42.8399V19.2145C223.882 18.6103 223.339 18.1269 222.855 18.1269C222.19 18.1269 221.768 18.6103 221.768 19.2145V42.8399ZM303.701 58.4894C303.701 59.0937 304.064 59.577 304.728 59.577C305.332 59.577 305.816 59.0937 305.816 58.4894V34.864C305.816 25.5589 298.323 18.1269 289.2 18.1269C282.916 18.1269 277.417 21.571 274.517 26.7674V19.1541C274.517 18.4894 274.094 18.1269 273.55 18.1269C272.946 18.1269 272.402 18.4894 272.402 19.1541V34.1994V34.864V58.4894V58.6707C272.402 58.7915 272.523 58.9728 272.583 59.0937C272.583 59.1541 272.583 59.1541 272.704 59.2145C272.765 59.3353 272.825 59.3958 272.946 59.3958C273.006 59.5166 273.127 59.5166 273.187 59.577H273.369H273.55C273.852 59.577 274.094 59.3958 274.275 59.1541C274.456 58.9728 274.517 58.7311 274.517 58.4894V34.864C274.517 26.6465 281.224 20.2417 289.2 20.2417C297.115 20.2417 303.701 26.6465 303.701 34.864V58.4894ZM341.465 59.577C348.414 59.577 354.577 55.71 358.142 50.2115C358.444 49.6677 358.263 49.003 357.84 48.7613C357.296 48.5196 356.692 48.5196 356.329 49.003C353.187 54.0786 347.689 57.4622 341.465 57.4622C331.496 57.4018 323.459 49.003 323.459 38.852V38.6103H360.317C360.801 38.6103 361.224 38.0665 361.345 37.5831V37.5227V37.3414V37.2205C360.559 26.5257 352.039 18.1269 341.465 18.1269C330.348 18.1269 321.465 27.3716 321.345 38.852C321.465 50.2115 330.348 59.3958 341.465 59.577ZM341.465 20.3021C350.529 20.3021 358.142 27.3716 359.23 36.5559H323.52C324.607 27.3716 332.221 20.3021 341.465 20.3021ZM376.39 58.4894C376.39 59.0937 376.813 59.577 377.478 59.577C378.082 59.577 378.505 59.0937 378.505 58.4894V1.45015C378.505 0.845921 378.082 0.362537 377.478 0.362537C376.813 0.362537 376.39 0.845921 376.39 1.45015V58.4894ZM441.949 60C454.577 60 464.366 52.6284 464.366 43.2628C464.366 32.0846 454.154 29.7281 444.124 27.432C434.758 25.2568 425.876 23.142 425.876 14.0785C425.876 7.55287 433.127 2.23565 442.009 2.23565C452.704 2.23565 458.384 8.58006 458.444 8.64048C458.807 9.06344 459.471 9.06344 459.955 8.76133C460.378 8.33837 460.499 7.61329 460.076 7.19033C459.774 6.88822 453.731 0 442.009 0C431.858 0 423.701 6.34441 423.701 14.0785C423.701 24.8943 433.852 27.2508 443.641 29.5468C453.187 31.7221 462.251 33.8369 462.251 43.2628C462.251 51.4804 453.369 57.8852 441.949 57.8852C430.348 57.8852 421.465 49.9094 421.405 49.8489C420.982 49.426 420.317 49.4864 419.894 49.9094C419.471 50.3323 419.532 51.0574 419.955 51.4804C420.317 51.7825 429.502 60 441.949 60ZM476.692 38.852C476.692 50.2115 485.453 59.577 496.269 59.577C507.085 59.577 515.906 50.2115 515.906 38.852C515.906 27.432 507.085 18.1269 496.269 18.1269C485.453 18.1269 476.692 27.432 476.692 38.852ZM478.807 38.852C478.807 28.5196 486.722 20.2417 496.269 20.2417C505.816 20.2417 513.792 28.5196 513.792 38.852C513.792 49.0634 505.816 57.4622 496.269 57.4622C486.722 57.4622 478.807 49.0634 478.807 38.852ZM532.1 58.4894C532.1 59.0937 532.523 59.577 533.248 59.577C533.792 59.577 534.215 59.0937 534.215 58.4894V1.45015C534.215 0.845921 533.792 0.362537 533.248 0.362537C532.523 0.362537 532.1 0.845921 532.1 1.45015V58.4894ZM552.704 58.4894C552.704 59.0937 553.127 59.577 553.792 59.577C554.275 59.577 554.819 59.0937 554.819 58.4894V19.1541C554.819 18.4894 554.275 18.1269 553.792 18.1269C553.127 18.1269 552.704 18.4894 552.704 19.1541V58.4894ZM552.704 7.91541C552.704 8.39879 553.127 8.88217 553.792 8.88217C554.275 8.88217 554.819 8.39879 554.819 7.91541V5.86103C554.819 5.19637 554.275 4.77341 553.792 4.77341C553.127 4.77341 552.704 5.19637 552.704 5.86103V7.91541ZM589.743 59.577C598.626 59.577 605.635 54.3202 605.635 47.6737C605.635 39.6375 598.021 37.8248 591.254 36.3142C584.547 34.6828 578.807 33.3535 578.807 27.3716C578.807 22.9607 583.701 19.4562 589.743 19.4562C596.994 19.4562 600.801 23.6858 600.922 23.8066C601.224 24.2296 601.888 24.29 602.432 23.8671C602.855 23.4441 602.916 22.7795 602.493 22.3565C602.311 22.1148 598.021 17.281 589.743 17.281C582.553 17.281 576.632 21.7523 576.632 27.3716C576.632 35.1057 584.124 36.7976 590.771 38.429C597.236 39.9396 603.459 41.3293 603.459 47.6737C603.459 53.0514 597.236 57.4622 589.743 57.4622C581.768 57.4622 575.665 52.0242 575.604 51.9637C575.181 51.5408 574.517 51.6012 574.094 52.0242C573.671 52.4471 573.731 53.1722 574.154 53.5952C574.396 53.8369 580.922 59.577 589.743 59.577Z" fill="#2A4A51"/>
<path d="M0.260644 23.4718C0.260644 23.4718 -6.71427 79.1152 51.4988 79.1152C51.4988 79.1152 66.0069 23.4718 0.260644 23.4718ZM148.175 0.155029C68.9872 0.155029 61.662 49.96 63.1153 75.5313C76.4935 36.9439 112.964 28.4268 112.964 28.4268C78.148 49.4756 71.0071 87.473 70.5428 90.155C158.97 86.7422 148.175 0.155029 148.175 0.155029Z" fill="url(#paint0_linear)"/>
<path d="M174.392 81.7655H168.896V85.2694H173.244V85.9171H168.896V90.2061H168.209V81.1374H174.392V81.7655ZM189.988 81.1374V86.8986C189.988 88.0109 189.683 88.8648 189.075 89.4602C188.473 90.0491 187.613 90.3435 186.494 90.3435C185.375 90.3435 184.511 90.0491 183.903 89.4602C183.294 88.8648 182.99 88.0109 182.99 86.8986V81.1374H183.677V86.7612C183.677 87.7296 183.916 88.4624 184.393 88.9597C184.871 89.4635 185.571 89.7154 186.494 89.7154C187.41 89.7154 188.107 89.4635 188.584 88.9597C189.062 88.4624 189.301 87.7296 189.301 86.7612V81.1374H189.988ZM200.293 89.578H205.73V90.2061H199.606V81.1374H200.293V89.578ZM215.015 89.578H220.462V90.2061H214.328V81.1374H215.015V89.578ZM242.663 81C244.37 81 245.512 81.6674 246.088 83.0022L245.499 83.4831C245.27 82.8353 244.927 82.3642 244.469 82.0698C244.017 81.7754 243.422 81.6281 242.682 81.6281C242.146 81.6281 241.681 81.7132 241.289 81.8833C240.896 82.0469 240.598 82.2694 240.396 82.5507C240.186 82.8386 240.081 83.1592 240.081 83.5125C240.081 83.8593 240.17 84.1472 240.346 84.3762C240.517 84.6052 240.811 84.8015 241.23 84.9651C241.649 85.1221 242.224 85.2661 242.957 85.397C244.135 85.5998 244.972 85.8942 245.47 86.2803C245.96 86.6598 246.206 87.1898 246.206 87.8702C246.206 88.3544 246.065 88.7863 245.784 89.1658C245.502 89.5387 245.103 89.8266 244.586 90.0295C244.063 90.2388 243.468 90.3435 242.8 90.3435C241.851 90.3435 241.05 90.1538 240.396 89.7743C239.735 89.3948 239.287 88.8615 239.051 88.1745L239.659 87.7034C239.843 88.3577 240.209 88.855 240.759 89.1952C241.315 89.542 242.002 89.7154 242.82 89.7154C243.605 89.7154 244.246 89.5551 244.743 89.2345C245.247 88.9139 245.499 88.4722 245.499 87.9095C245.499 87.4253 245.293 87.0425 244.881 86.7612C244.475 86.4733 243.769 86.2443 242.761 86.0742C241.91 85.9237 241.236 85.7437 240.739 85.5344C240.248 85.325 239.895 85.0633 239.679 84.7492C239.463 84.4417 239.355 84.0523 239.355 83.5812C239.355 83.1167 239.489 82.6881 239.758 82.2955C240.026 81.8964 240.412 81.5823 240.916 81.3533C241.413 81.1178 241.995 81 242.663 81ZM261.006 81.1374V81.7655H257.699V90.2061H257.012V81.7655H253.694V81.1374H261.006ZM274.472 90.2061L273.333 87.3599H268.995L267.867 90.2061H267.14L270.762 81.1374H271.577L275.198 90.2061H274.472ZM269.251 86.7317H273.088L271.508 82.7764L271.174 81.8146H271.164L270.831 82.747L269.251 86.7317ZM290.705 87.9095C290.444 88.6816 289.995 89.2803 289.361 89.7056C288.726 90.1309 287.964 90.3435 287.074 90.3435C286.249 90.3435 285.526 90.1538 284.905 89.7743C284.283 89.3948 283.802 88.8517 283.462 88.145C283.122 87.4384 282.952 86.614 282.952 85.6718C282.952 84.7296 283.122 83.9051 283.462 83.1985C283.802 82.4918 284.283 81.9487 284.905 81.5692C285.526 81.1897 286.246 81 287.064 81C288.877 81 290.048 81.7459 290.578 83.2377L289.901 83.5518C289.691 82.9106 289.354 82.4297 288.89 82.1091C288.432 81.7884 287.836 81.6281 287.103 81.6281C286.423 81.6281 285.824 81.7917 285.307 82.1189C284.79 82.446 284.391 82.9139 284.11 83.5224C283.822 84.1309 283.678 84.8473 283.678 85.6718C283.678 86.4962 283.819 87.2127 284.1 87.8212C284.381 88.4297 284.774 88.8975 285.278 89.2247C285.788 89.5518 286.387 89.7154 287.074 89.7154C287.807 89.7154 288.428 89.5355 288.939 89.1756C289.456 88.8157 289.815 88.3086 290.018 87.6543L290.705 87.9095ZM305.417 90.2061L302.09 85.3184L300.275 87.1538V90.2061H299.588V81.1374H300.275V86.2214L305.251 81.1374H306.163L302.571 84.8081L306.252 90.2061H305.417ZM330.327 83.8462L328.501 90.2061H327.648L324.821 81.1374H325.557L328.079 89.6467L330.455 81.1374H331.25L333.625 89.6565L336.167 81.1374H336.873L334.037 90.2061H333.183L331.358 83.8462L330.847 81.8833H330.837L330.327 83.8462ZM346.266 89.578H351.998V90.2061H345.579V81.1374H351.782V81.7655H346.266V85.2694H350.624V85.9171H346.266V89.578ZM360.86 90.2061V81.1374H364.06C365.048 81.1374 365.787 81.3435 366.278 81.7557C366.769 82.1679 367.014 82.7634 367.014 83.542C367.014 84.072 366.87 84.5202 366.582 84.8866C366.294 85.253 365.885 85.4918 365.355 85.6031V85.6129C365.938 85.7045 366.402 85.9433 366.749 86.3293C367.089 86.7154 367.259 87.193 367.259 87.7623C367.259 88.5409 366.985 89.1429 366.435 89.5682C365.879 89.9935 365.087 90.2061 364.06 90.2061H360.86ZM361.547 85.3184H364.079C365.552 85.3184 366.288 84.7263 366.288 83.542C366.288 82.3577 365.552 81.7655 364.079 81.7655H361.547V85.3184ZM361.547 89.578H364.197C364.969 89.578 365.552 89.4209 365.944 89.1069C366.337 88.7928 366.533 88.3446 366.533 87.7623C366.533 87.1669 366.337 86.7154 365.944 86.4079C365.552 86.1003 364.969 85.9466 364.197 85.9466H361.547V89.578ZM390.442 81.1374C391.888 81.1374 393.003 81.5202 393.788 82.2857C394.574 83.0513 394.966 84.157 394.966 85.6031C394.966 87.0883 394.574 88.2268 393.788 89.0185C393.003 89.8103 391.888 90.2061 390.442 90.2061H387.586V81.1374H390.442ZM390.5 89.578C391.711 89.578 392.637 89.2345 393.278 88.5474C393.926 87.867 394.25 86.8855 394.25 85.6031C394.25 84.373 393.926 83.4275 393.278 82.7666C392.637 82.0992 391.711 81.7655 390.5 81.7655H388.273V89.578H390.5ZM404.82 89.578H410.542V90.2061H404.133V81.1374H410.326V81.7655H404.82V85.2694H409.168V85.9171H404.82V89.578ZM426.098 81.1374L422.614 90.2061H421.799L418.295 81.1374H419.041L421.721 88.1549L422.202 89.5584L422.683 88.1549L425.372 81.1374H426.098ZM435.402 89.578H441.134V90.2061H434.715V81.1374H440.908V81.7655H435.402V85.2694H439.76V85.9171H435.402V89.578ZM450.684 89.578H456.121V90.2061H449.997V81.1374H450.684V89.578ZM467.791 81C468.641 81 469.381 81.1897 470.009 81.5692C470.637 81.9487 471.121 82.4886 471.461 83.1887C471.795 83.8888 471.962 84.7165 471.962 85.6718C471.962 86.6271 471.795 87.4548 471.461 88.1549C471.121 88.855 470.637 89.3948 470.009 89.7743C469.381 90.1538 468.641 90.3435 467.791 90.3435C466.94 90.3435 466.201 90.1538 465.573 89.7743C464.944 89.3948 464.46 88.855 464.12 88.1549C463.78 87.4548 463.61 86.6271 463.61 85.6718C463.61 84.7165 463.78 83.8888 464.12 83.1887C464.46 82.4886 464.944 81.9487 465.573 81.5692C466.201 81.1897 466.94 81 467.791 81ZM467.791 81.6281C467.084 81.6281 466.472 81.7917 465.955 82.1189C465.438 82.446 465.039 82.9139 464.758 83.5224C464.477 84.1309 464.336 84.8473 464.336 85.6718C464.336 86.4962 464.477 87.2127 464.758 87.8212C465.039 88.4297 465.438 88.8975 465.955 89.2247C466.472 89.5518 467.084 89.7154 467.791 89.7154C468.497 89.7154 469.109 89.5518 469.626 89.2247C470.149 88.8975 470.552 88.4297 470.833 87.8212C471.115 87.2127 471.255 86.4962 471.255 85.6718C471.255 84.8473 471.115 84.1309 470.833 83.5224C470.552 82.9139 470.149 82.446 469.626 82.1189C469.109 81.7917 468.497 81.6281 467.791 81.6281ZM484.122 81.1374C485.071 81.1374 485.82 81.373 486.37 81.8441C486.926 82.3152 487.204 82.9629 487.204 83.7874C487.204 84.6118 486.926 85.2628 486.37 85.7405C485.82 86.2181 485.071 86.4569 484.122 86.4569H481.806V90.2061H481.119V81.1374H484.122ZM484.044 85.8092C484.829 85.8092 485.431 85.6358 485.85 85.289C486.268 84.9422 486.478 84.4417 486.478 83.7874C486.478 83.1461 486.268 82.6489 485.85 82.2955C485.431 81.9422 484.829 81.7655 484.044 81.7655H481.806V85.8092H484.044ZM496.744 89.578H502.466V90.2061H496.057V81.1374H502.25V81.7655H496.744V85.2694H501.092V85.9171H496.744V89.578ZM518.15 90.2061H517.335L514.744 86.2803H514.695H512.015V90.2061H511.328V81.1374H514.695C515.604 81.1374 516.327 81.3664 516.864 81.8244C517.4 82.2824 517.669 82.9106 517.669 83.7088C517.669 84.3697 517.476 84.916 517.09 85.3479C516.703 85.7863 516.177 86.0676 515.509 86.1919L518.15 90.2061ZM512.015 81.7655V85.6325H514.685C515.418 85.6325 515.977 85.4657 516.363 85.132C516.756 84.8048 516.952 84.3304 516.952 83.7088C516.952 83.0872 516.756 82.6063 516.363 82.2661C515.977 81.9324 515.418 81.7655 514.685 81.7655H512.015Z" fill="#2A4A51"/>
<defs>
<linearGradient id="paint0_linear" x1="-17.2951" y1="0.540529" x2="117.374" y2="63.3378" gradientUnits="userSpaceOnUse">
<stop stop-color="#41E296"/>
<stop offset="1" stop-color="#00C4EE"/>
</linearGradient>
</defs>
</svg>
