<svg width="303" height="297" viewBox="0 0 303 297" fill="none" xmlns="http://www.w3.org/2000/svg">
<rect x="77" y="29" width="202" height="127" rx="3" fill="#D3F1EF"/>
<path d="M135.149 72.3487C135.149 72.3487 131.156 104.204 164.483 104.204C164.483 104.204 172.788 72.3487 135.149 72.3487ZM219.829 59C174.495 59 170.301 87.513 171.133 102.152C178.792 80.0613 199.671 75.1854 199.671 75.1854C179.739 87.2356 175.651 108.989 175.385 110.524C226.009 108.57 219.829 59 219.829 59Z" fill="white"/>
<rect y="135" width="258" height="162" rx="3" fill="#41E296"/>
<path d="M79.1738 201.545C79.1738 201.545 74.5238 238.64 113.333 238.64C113.333 238.64 123.005 201.545 79.1738 201.545ZM177.784 186C124.991 186 120.108 219.203 121.077 236.251C129.996 210.526 154.309 204.848 154.309 204.848C131.099 218.88 126.338 244.212 126.029 246C184.98 243.725 177.784 186 177.784 186Z" fill="white"/>
<rect x="172" width="131" height="82" rx="3" fill="#00C4EE"/>
<path d="M209.102 32.1108C209.102 32.1108 206.376 53.853 229.123 53.853C229.123 53.853 234.792 32.1108 209.102 32.1108ZM266.898 23C235.956 23 233.094 42.4609 233.662 52.4527C238.889 37.3749 253.14 34.047 253.14 34.047C239.536 42.2716 236.745 57.1188 236.564 58.1667C271.116 56.8332 266.898 23 266.898 23Z" fill="white"/>
</svg>
