<svg width="376" height="777" viewBox="0 0 376 777" fill="none" xmlns="http://www.w3.org/2000/svg">
<line x1="258" y1="-8.74228e-08" x2="258" y2="271" stroke="#E0E0E0" stroke-width="4"/>
<line x1="258" y1="-8.74228e-08" x2="258" y2="271" stroke="url(#paint0_linear)" stroke-width="4"/>
<path d="M257.316 243.762L325.665 283.224L325.665 362.146L257.316 401.608L188.967 362.146L188.967 283.224L257.316 243.762Z" fill="#E0E0E0" stroke="#C5C5C5"/>
<path d="M108.599 244.176L176.948 283.638L176.948 362.56L108.599 402.022L40.25 362.56L40.25 283.638L108.599 244.176Z" fill="#E0E0E0" stroke="#C5C5C5"/>
<path d="M185.099 376.678L253.448 416.14L253.448 495.062L185.099 534.524L116.75 495.062L116.75 416.14L185.099 376.678Z" fill="#E0E0E0" stroke="#C5C5C5"/>
<line x1="185" y1="528" x2="185" y2="777" stroke="#E0E0E0" stroke-width="4"/>
<line x1="185" y1="528" x2="185" y2="777" stroke="url(#paint1_linear)" stroke-width="4"/>
<path d="M130.875 306.5H87.125C85.3991 306.5 84 304.765 84 302.625V294.875C84 292.735 85.3991 291 87.125 291H130.875C132.601 291 134 292.735 134 294.875V302.625C134 304.765 132.601 306.5 130.875 306.5ZM126.188 295.844C124.893 295.844 123.844 297.145 123.844 298.75C123.844 300.355 124.893 301.656 126.188 301.656C127.482 301.656 128.531 300.355 128.531 298.75C128.531 297.145 127.482 295.844 126.188 295.844ZM119.938 295.844C118.643 295.844 117.594 297.145 117.594 298.75C117.594 300.355 118.643 301.656 119.938 301.656C121.232 301.656 122.281 300.355 122.281 298.75C122.281 297.145 121.232 295.844 119.938 295.844ZM130.875 325.875H87.125C85.3991 325.875 84 324.14 84 322V314.25C84 312.11 85.3991 310.375 87.125 310.375H130.875C132.601 310.375 134 312.11 134 314.25V322C134 324.14 132.601 325.875 130.875 325.875ZM126.188 315.219C124.893 315.219 123.844 316.52 123.844 318.125C123.844 319.73 124.893 321.031 126.188 321.031C127.482 321.031 128.531 319.73 128.531 318.125C128.531 316.52 127.482 315.219 126.188 315.219ZM119.938 315.219C118.643 315.219 117.594 316.52 117.594 318.125C117.594 319.73 118.643 321.031 119.938 321.031C121.232 321.031 122.281 319.73 122.281 318.125C122.281 316.52 121.232 315.219 119.938 315.219ZM130.875 345.25H87.125C85.3991 345.25 84 343.515 84 341.375V333.625C84 331.485 85.3991 329.75 87.125 329.75H130.875C132.601 329.75 134 331.485 134 333.625V341.375C134 343.515 132.601 345.25 130.875 345.25ZM126.188 334.594C124.893 334.594 123.844 335.895 123.844 337.5C123.844 339.105 124.893 340.406 126.188 340.406C127.482 340.406 128.531 339.105 128.531 337.5C128.531 335.895 127.482 334.594 126.188 334.594ZM119.938 334.594C118.643 334.594 117.594 335.895 117.594 337.5C117.594 339.105 118.643 340.406 119.938 340.406C121.232 340.406 122.281 339.105 122.281 337.5C122.281 335.895 121.232 334.594 119.938 334.594Z" fill="#828282"/>
<path d="M282 302.185V307.3C282 311.808 270.802 315.484 257 315.484C243.198 315.484 232 311.808 232 307.3V302.185C232 297.677 243.198 294 257 294C270.802 294 282 297.677 282 302.185ZM282 313.694V325.203C282 329.711 270.802 333.388 257 333.388C243.198 333.388 232 329.711 232 325.203V313.694C237.371 317.403 247.202 319.129 257 319.129C266.798 319.129 276.629 317.403 282 313.694ZM282 331.598V343.107C282 347.615 270.802 351.292 257 351.292C243.198 351.292 232 347.615 232 343.107V331.598C237.371 335.306 247.202 337.033 257 337.033C266.798 337.033 276.629 335.306 282 331.598Z" fill="#828282"/>
<path d="M182.431 488.136C163.512 460.787 160 457.98 160 447.929C160 434.161 171.193 423 185 423C198.807 423 210 434.161 210 447.929C210 457.98 206.488 460.787 187.569 488.136C186.328 489.924 183.672 489.924 182.431 488.136ZM185 458.316C190.753 458.316 195.417 453.666 195.417 447.929C195.417 442.192 190.753 437.542 185 437.542C179.247 437.542 174.583 442.192 174.583 447.929C174.583 453.666 179.247 458.316 185 458.316Z" fill="#828282"/>
<defs>
<linearGradient id="paint0_linear" x1="256" y1="193.5" x2="256" y2="15.5" gradientUnits="userSpaceOnUse">
<stop stop-color="#E0E0E0"/>
<stop offset="1" stop-color="white"/>
</linearGradient>
<linearGradient id="paint1_linear" x1="182" y1="777" x2="182" y2="652.5" gradientUnits="userSpaceOnUse">
<stop stop-color="white"/>
<stop offset="1" stop-color="#E0E0E0"/>
</linearGradient>
</defs>
</svg>
