<svg width="766" height="674" viewBox="0 0 766 674" fill="none" xmlns="http://www.w3.org/2000/svg">
<path d="M469.91 402L499.355 419V453L469.91 470L440.465 453V419L469.91 402Z" fill="#4F4F4F"/>
<path d="M401.91 402L431.355 419V453L401.91 470L372.465 453V419L401.91 402Z" fill="#C5C5C5"/>
<line x1="435.91" y1="354" x2="435.91" y2="273" stroke="#FF3333" stroke-width="4"/>
<path d="M435.91 345L465.355 362V396L435.91 413L406.465 396V362L435.91 345Z" fill="#FF3333"/>
<line x1="496.142" y1="451.794" x2="562.826" y2="490.294" stroke="#4F4F4F" stroke-width="4" stroke-linecap="round"/>
<circle cx="564.205" cy="491.294" r="7" transform="rotate(-60 564.205 491.294)" fill="#C4C4C4" stroke="#4F4F4F" stroke-width="4"/>
<line x1="375.032" y1="451.794" x2="308.348" y2="490.294" stroke="#C5C5C5" stroke-width="4" stroke-linecap="round"/>
<circle cx="306.205" cy="491.294" r="7" transform="rotate(60 306.205 491.294)" fill="white" stroke="#C5C5C5" stroke-width="4"/>
<circle cx="435.41" cy="267.294" r="7" fill="white" stroke="#FF3333" stroke-width="4"/>
<line x1="435" y1="-8.74228e-08" x2="435" y2="239" stroke="#D6D6D6" stroke-width="4"/>
<circle cx="434.91" cy="245" r="7" stroke="#D6D6D6" stroke-width="4"/>
<line x1="4.91027" y1="666.268" x2="282.038" y2="506.268" stroke="#D6D6D6" stroke-width="4"/>
<line x1="4.91027" y1="666.268" x2="282.038" y2="506.268" stroke="url(#paint0_linear)" stroke-width="4"/>
<circle cx="287.28" cy="502.294" r="7" transform="rotate(-120 287.28 502.294)" stroke="#D6D6D6" stroke-width="4"/>
<line y1="-2" x2="200" y2="-2" transform="matrix(-0.866025 -0.5 -0.5 0.866025 759.115 609)" stroke="#D6D6D6" stroke-width="4"/>
<line y1="-2" x2="200" y2="-2" transform="matrix(-0.866025 -0.5 -0.5 0.866025 759.115 609)" stroke="url(#paint1_linear)" stroke-width="4"/>
<circle r="7" transform="matrix(0.5 -0.866025 -0.866025 -0.5 583.204 503.294)" stroke="#D6D6D6" stroke-width="4"/>
<path d="M455.431 253.031L456.188 253.481L461.344 270.749L460.416 270.197L458.714 264.505L452.888 261.038L451.186 264.706L450.241 264.143L455.431 253.031ZM458.474 263.521L455.81 254.496L453.094 260.321L458.474 263.521ZM463.197 271.851V257.651L468.216 260.637C468.732 260.944 469.207 261.354 469.643 261.866C470.078 262.379 470.451 262.94 470.76 263.551C471.081 264.155 471.327 264.775 471.499 265.411C471.682 266.04 471.774 266.621 471.774 267.154C471.774 267.728 471.688 268.23 471.516 268.661C471.356 269.099 471.121 269.432 470.811 269.662C470.514 269.898 470.153 270.016 469.729 270.017C469.305 270.005 468.835 269.846 468.319 269.539L464.074 267.013V272.373L463.197 271.851ZM464.074 266.073L468.285 268.578C468.686 268.817 469.047 268.938 469.368 268.943C469.689 268.933 469.958 268.834 470.176 268.643C470.405 268.446 470.577 268.175 470.691 267.83C470.817 267.478 470.88 267.076 470.88 266.622C470.88 266.156 470.806 265.671 470.657 265.169C470.519 264.661 470.324 264.172 470.072 263.702C469.832 263.239 469.545 262.815 469.213 262.431C468.892 262.053 468.548 261.755 468.182 261.537L464.074 259.093V266.073ZM473.873 278.203V264.003L474.749 264.524V278.724L473.873 278.203ZM482.366 283.256V269.056L483.243 269.577V283.777L482.366 283.256ZM493.492 289.875L492.632 289.364V283.564C492.632 282.217 492.466 281.138 492.134 280.327C491.813 279.523 491.298 278.909 490.587 278.487C490.209 278.262 489.831 278.117 489.453 278.052C489.086 277.994 488.742 278.016 488.421 278.118C488.101 278.221 487.82 278.4 487.579 278.657C487.339 278.901 487.161 279.215 487.046 279.6V286.04L486.187 285.529V275.129L486.995 275.61V278.09C487.178 277.799 487.402 277.572 487.665 277.408C487.94 277.239 488.244 277.139 488.576 277.11C488.92 277.075 489.281 277.11 489.659 277.215C490.037 277.306 490.427 277.471 490.828 277.71C491.802 278.289 492.489 279.098 492.89 280.137C493.291 281.162 493.492 282.415 493.492 283.895V289.875ZM499.994 293.243C499.948 293.243 499.868 293.248 499.753 293.26C499.65 293.265 499.513 293.25 499.341 293.215C499.18 293.186 498.997 293.137 498.791 293.067C498.585 292.998 498.361 292.892 498.12 292.749C497.88 292.605 497.651 292.429 497.433 292.22C497.227 292.017 497.043 291.788 496.883 291.532C496.722 291.277 496.596 291.009 496.505 290.727C496.413 290.446 496.367 290.152 496.367 289.846V282.006L495.113 281.259V280.439L496.367 281.186V277.626L497.227 278.137V281.697L499.306 282.934V283.754L497.227 282.517V290.117C497.227 290.504 497.341 290.865 497.57 291.201C497.8 291.524 498.057 291.771 498.344 291.942C498.699 292.153 499.003 292.267 499.255 292.284C499.518 292.294 499.679 292.296 499.736 292.29L499.994 293.243ZM505.092 296.976C504.462 296.601 503.878 296.114 503.339 295.513C502.8 294.9 502.331 294.227 501.93 293.495C501.54 292.756 501.231 291.992 501.001 291.203C500.784 290.42 500.675 289.655 500.675 288.908C500.675 288.175 500.784 287.553 501.001 287.043C501.231 286.526 501.54 286.143 501.93 285.895C502.319 285.633 502.778 285.519 503.305 285.553C503.843 285.593 504.422 285.798 505.041 286.166C505.671 286.541 506.255 287.035 506.794 287.649C507.332 288.249 507.797 288.912 508.186 289.637C508.576 290.349 508.879 291.096 509.097 291.879C509.315 292.649 509.424 293.393 509.424 294.113C509.424 294.18 509.424 294.267 509.424 294.373C509.424 294.467 509.418 294.523 509.406 294.543L501.569 289.88C501.603 290.501 501.723 291.132 501.93 291.775C502.136 292.404 502.394 292.998 502.703 293.555C503.024 294.119 503.391 294.631 503.803 295.09C504.216 295.548 504.657 295.917 505.127 296.197C505.436 296.381 505.74 296.515 506.038 296.599C506.336 296.669 506.611 296.693 506.863 296.67C507.126 296.653 507.355 296.583 507.55 296.459C507.756 296.328 507.917 296.15 508.031 295.925L508.788 296.615C508.662 296.913 508.473 297.148 508.22 297.318C507.98 297.481 507.693 297.577 507.361 297.606C507.04 297.642 506.685 297.604 506.295 297.492C505.906 297.394 505.505 297.222 505.092 296.976ZM508.599 293.263C508.564 292.629 508.444 291.997 508.238 291.368C508.043 290.745 507.785 290.158 507.464 289.608C507.155 289.05 506.794 288.549 506.381 288.103C505.969 287.645 505.528 287.275 505.058 286.996C504.588 286.716 504.147 286.561 503.734 286.529C503.322 286.483 502.955 286.552 502.634 286.734C502.325 286.91 502.073 287.2 501.878 287.604C501.695 288.002 501.586 288.49 501.551 289.07L508.599 293.263ZM514.924 302.786C514.305 302.418 513.738 301.933 513.222 301.333C512.707 300.72 512.26 300.054 511.882 299.336C511.515 298.611 511.223 297.864 511.005 297.094C510.799 296.332 510.696 295.61 510.696 294.93C510.696 294.223 510.793 293.601 510.988 293.064C511.194 292.533 511.481 292.13 511.847 291.855C512.214 291.567 512.649 291.426 513.154 291.432C513.669 291.446 514.236 291.637 514.855 292.005C515.634 292.468 516.31 293.111 516.883 293.931C517.468 294.746 517.961 295.612 518.362 296.531V294.271L519.152 294.741V305.341C519.152 306.048 519.038 306.6 518.809 306.997C518.579 307.394 518.27 307.65 517.88 307.765C517.502 307.9 517.055 307.9 516.54 307.767C516.035 307.654 515.503 307.43 514.941 307.096C514.426 306.789 513.961 306.453 513.549 306.088C513.136 305.736 512.77 305.357 512.449 304.953C512.14 304.569 511.859 304.149 511.607 303.692C511.366 303.256 511.154 302.803 510.971 302.334L511.555 302.221C511.91 303.139 512.392 303.939 512.999 304.62C513.606 305.315 514.254 305.867 514.941 306.276C515.4 306.549 515.829 306.731 516.23 306.823C516.643 306.922 516.998 306.913 517.296 306.797C517.605 306.701 517.846 306.491 518.018 306.166C518.201 305.849 518.293 305.403 518.293 304.83V302.55C517.926 303.012 517.439 303.269 516.832 303.321C516.225 303.359 515.589 303.181 514.924 302.786ZM515.13 302.048C515.508 302.273 515.875 302.412 516.23 302.463C516.597 302.508 516.924 302.482 517.21 302.386C517.508 302.296 517.749 302.139 517.932 301.915C518.127 301.698 518.247 301.436 518.293 301.13V297.71C518.155 297.228 517.972 296.752 517.743 296.283C517.514 295.8 517.25 295.35 516.952 294.932C516.666 294.522 516.351 294.148 516.007 293.81C515.675 293.466 515.337 293.191 514.993 292.987C514.454 292.666 513.973 292.513 513.549 292.528C513.125 292.542 512.764 292.674 512.466 292.923C512.18 293.18 511.956 293.533 511.796 293.985C511.647 294.429 511.572 294.925 511.572 295.472C511.572 296.072 511.664 296.693 511.847 297.335C512.031 297.978 512.283 298.601 512.604 299.205C512.924 299.809 513.303 300.361 513.738 300.86C514.173 301.359 514.638 301.755 515.13 302.048ZM526.067 299.755C525.265 299.305 524.56 299.165 523.953 299.337C523.357 299.503 522.939 299.974 522.698 300.751V307.251L521.839 306.74V296.34L522.664 296.83V299.39C522.973 298.841 523.38 298.49 523.884 298.337C524.4 298.177 524.95 298.237 525.534 298.518C525.649 298.573 525.752 298.628 525.844 298.682C525.935 298.737 526.01 298.781 526.067 298.815V299.755ZM529.779 311.664C529.367 311.418 528.983 311.11 528.628 310.739C528.273 310.354 527.958 309.94 527.683 309.496C527.419 309.046 527.213 308.583 527.064 308.108C526.915 307.62 526.84 307.149 526.84 306.695C526.84 306.242 526.932 305.883 527.115 305.619C527.299 305.355 527.551 305.185 527.872 305.109C528.204 305.026 528.599 305.048 529.058 305.174C529.516 305.287 530.02 305.507 530.57 305.834C531.051 306.121 531.533 306.46 532.014 306.853C532.507 307.24 532.948 307.635 533.337 308.041V307.021C533.337 306.034 533.097 305.111 532.616 304.251C532.134 303.378 531.481 302.696 530.656 302.205C530.221 301.946 529.757 301.777 529.264 301.697C528.783 301.624 528.29 301.638 527.786 301.738L527.459 300.863C528.605 300.638 529.694 300.833 530.725 301.446C531.802 302.087 532.65 302.958 533.269 304.06C533.887 305.148 534.197 306.332 534.197 307.612V312.692C534.197 313.025 534.323 313.267 534.575 313.417V314.317C534.518 314.296 534.455 314.265 534.386 314.224C534.329 314.204 534.277 314.18 534.231 314.152C534.002 314.016 533.819 313.82 533.681 313.565C533.544 313.297 533.463 313.029 533.441 312.762V311.902C533.028 312.283 532.501 312.45 531.859 312.401C531.218 312.353 530.524 312.107 529.779 311.664ZM529.951 310.966C530.616 311.361 531.223 311.576 531.773 311.61C532.335 311.651 532.765 311.52 533.062 311.217C533.246 311.046 533.337 310.834 533.337 310.581V308.741C532.925 308.308 532.495 307.913 532.048 307.554C531.601 307.194 531.137 306.872 530.656 306.585C530.209 306.319 529.802 306.137 529.436 306.039C529.069 305.928 528.754 305.894 528.49 305.937C528.227 305.98 528.021 306.104 527.872 306.309C527.734 306.507 527.665 306.779 527.665 307.126C527.665 307.473 527.723 307.833 527.837 308.208C527.952 308.583 528.112 308.945 528.319 309.295C528.525 309.631 528.765 309.947 529.04 310.244C529.327 310.535 529.631 310.775 529.951 310.966ZM540.732 317.48C540.686 317.479 540.606 317.485 540.491 317.497C540.388 317.502 540.251 317.487 540.079 317.451C539.918 317.422 539.735 317.373 539.529 317.304C539.322 317.235 539.099 317.128 538.858 316.985C538.618 316.842 538.389 316.666 538.171 316.456C537.965 316.253 537.781 316.024 537.621 315.769C537.46 315.513 537.334 315.245 537.243 314.964C537.151 314.683 537.105 314.389 537.105 314.082V306.242L535.85 305.496V304.676L537.105 305.422V301.862L537.965 302.373V305.933L540.044 307.171V307.991L537.965 306.753V314.353C537.965 314.74 538.079 315.102 538.308 315.438C538.537 315.761 538.795 316.008 539.082 316.178C539.437 316.389 539.741 316.503 539.993 316.52C540.256 316.53 540.417 316.532 540.474 316.526L540.732 317.48ZM542.25 318.883V308.483L543.109 308.994V319.394L542.25 318.883ZM542.25 306.123V304.283L543.109 304.794V306.634L542.25 306.123ZM549.555 323.429C548.925 323.054 548.341 322.567 547.802 321.966C547.275 321.359 546.817 320.693 546.427 319.968C546.037 319.243 545.734 318.489 545.516 317.706C545.298 316.923 545.189 316.172 545.189 315.452C545.189 314.718 545.298 314.09 545.516 313.566C545.745 313.049 546.055 312.66 546.444 312.398C546.834 312.137 547.292 312.023 547.819 312.056C548.358 312.083 548.936 312.281 549.555 312.649C550.174 313.017 550.747 313.505 551.274 314.112C551.801 314.705 552.26 315.365 552.649 316.09C553.05 316.822 553.36 317.579 553.577 318.362C553.806 319.152 553.921 319.913 553.921 320.647C553.921 321.367 553.806 321.985 553.577 322.502C553.36 323.026 553.056 323.418 552.666 323.68C552.277 323.942 551.813 324.059 551.274 324.032C550.747 323.998 550.174 323.797 549.555 323.429ZM546.049 316.003C546.049 316.616 546.141 317.251 546.324 317.907C546.507 318.549 546.754 319.162 547.063 319.746C547.384 320.337 547.756 320.879 548.18 321.371C548.604 321.85 549.057 322.233 549.538 322.519C550.019 322.805 550.472 322.961 550.896 322.987C551.32 322.999 551.692 322.894 552.013 322.671C552.334 322.449 552.586 322.126 552.769 321.701C552.953 321.264 553.044 320.732 553.044 320.105C553.044 319.492 552.953 318.864 552.769 318.221C552.586 317.566 552.334 316.942 552.013 316.351C551.692 315.747 551.32 315.199 550.896 314.707C550.483 314.221 550.037 313.835 549.555 313.549C549.074 313.263 548.621 313.114 548.197 313.101C547.773 313.089 547.401 313.194 547.08 313.417C546.771 313.646 546.519 313.983 546.324 314.427C546.141 314.864 546.049 315.39 546.049 316.003ZM563.285 331.398L562.426 330.886V325.086C562.426 323.74 562.26 322.661 561.927 321.85C561.606 321.045 561.091 320.432 560.38 320.009C560.002 319.784 559.624 319.639 559.246 319.574C558.879 319.516 558.535 319.538 558.215 319.641C557.894 319.743 557.613 319.923 557.372 320.18C557.132 320.423 556.954 320.738 556.84 321.123V327.563L555.98 327.052V316.652L556.788 317.132V319.612C556.971 319.321 557.195 319.094 557.458 318.931C557.733 318.761 558.037 318.662 558.369 318.633C558.713 318.597 559.074 318.632 559.452 318.737C559.83 318.829 560.22 318.994 560.621 319.233C561.595 319.812 562.282 320.621 562.683 321.66C563.085 322.685 563.285 323.938 563.285 325.418V331.398Z" fill="#C5C5C5"/>
<path d="M327.221 507.549C324.692 507.636 322.642 507.226 321.072 506.319C320.24 505.839 319.646 505.289 319.288 504.669C318.941 504.056 318.809 503.433 318.889 502.799C318.97 502.166 319.242 501.549 319.704 500.949C320.165 500.35 320.783 499.826 321.557 499.38C322.365 498.913 323.283 498.543 324.311 498.27C325.35 498.003 326.407 497.846 327.481 497.8C328.566 497.76 329.623 497.843 330.65 498.05C331.69 498.25 332.619 498.586 333.439 499.06C334.051 499.413 334.53 499.77 334.877 500.13C335.246 500.49 335.5 500.849 335.639 501.209C335.8 501.569 335.852 501.926 335.795 502.279C335.76 502.633 335.645 502.979 335.448 503.319L334.288 503.149C334.68 502.443 334.709 501.786 334.374 501.179C334.063 500.573 333.474 500.02 332.608 499.52C331.88 499.1 331.066 498.81 330.165 498.65C329.265 498.49 328.352 498.436 327.429 498.49C326.505 498.543 325.61 498.693 324.744 498.94C323.878 499.186 323.104 499.506 322.423 499.9C321.695 500.32 321.13 500.793 320.725 501.319C320.333 501.839 320.108 502.369 320.05 502.909C320.004 503.456 320.131 503.989 320.431 504.509C320.743 505.023 321.245 505.479 321.938 505.879C322.689 506.312 323.572 506.622 324.588 506.809C325.616 507.002 326.817 507.062 328.191 506.989L330.564 505.619L327.775 504.009L328.485 503.599L332.036 505.649L326.06 509.099L325.298 508.659L327.221 507.549ZM332.05 512.757C331.415 512.39 330.947 511.98 330.647 511.527C330.358 511.067 330.225 510.597 330.248 510.117C330.295 509.637 330.485 509.167 330.82 508.707C331.166 508.254 331.663 507.84 332.31 507.467C332.945 507.1 333.649 506.82 334.423 506.627C335.22 506.434 336.022 506.33 336.83 506.317C337.65 506.297 338.447 506.37 339.221 506.537C340.006 506.71 340.71 506.977 341.334 507.337C341.969 507.704 342.431 508.117 342.719 508.577C343.02 509.03 343.153 509.494 343.118 509.967C343.095 510.433 342.91 510.893 342.564 511.347C342.229 511.793 341.75 512.197 341.126 512.557C341.068 512.59 340.993 512.633 340.901 512.687C340.82 512.733 340.762 512.76 340.728 512.767L332.829 508.207C332.344 508.527 331.981 508.877 331.738 509.257C331.507 509.63 331.386 510 331.374 510.367C331.374 510.74 331.49 511.1 331.721 511.447C331.952 511.793 332.304 512.103 332.777 512.377C333.089 512.557 333.435 512.71 333.817 512.837C334.209 512.957 334.608 513.047 335.012 513.107C335.427 513.173 335.837 513.203 336.241 513.197C336.669 513.19 337.067 513.147 337.437 513.067L337.991 513.627C337.541 513.74 337.05 513.803 336.519 513.817C336.011 513.83 335.491 513.797 334.96 513.717C334.44 513.643 333.932 513.523 333.435 513.357C332.927 513.197 332.466 512.997 332.05 512.757ZM340.606 511.897C341.103 511.57 341.467 511.22 341.698 510.847C341.94 510.48 342.056 510.114 342.044 509.747C342.056 509.38 341.94 509.027 341.698 508.687C341.467 508.34 341.114 508.03 340.641 507.757C340.168 507.484 339.631 507.28 339.03 507.147C338.441 507.007 337.823 506.937 337.177 506.937C336.553 506.937 335.918 507.01 335.272 507.157C334.648 507.304 334.059 507.517 333.505 507.797L340.606 511.897ZM342.096 518.556C341.461 518.19 340.993 517.78 340.693 517.326C340.416 516.873 340.295 516.41 340.329 515.937C340.364 515.463 340.555 515 340.901 514.547C341.247 514.093 341.732 513.687 342.356 513.327C342.991 512.96 343.701 512.677 344.486 512.477C345.283 512.283 346.091 512.177 346.911 512.157C347.731 512.137 348.528 512.21 349.302 512.377C350.098 512.543 350.808 512.807 351.432 513.167C352.056 513.527 352.506 513.933 352.783 514.387C353.072 514.833 353.199 515.293 353.164 515.767C353.141 516.247 352.956 516.713 352.61 517.166C352.275 517.626 351.79 518.04 351.155 518.406C350.531 518.766 349.821 519.043 349.024 519.236C348.239 519.436 347.437 519.546 346.617 519.566C345.797 519.586 344.989 519.513 344.192 519.346C343.418 519.18 342.72 518.916 342.096 518.556ZM343.187 513.847C342.656 514.153 342.246 514.497 341.958 514.877C341.68 515.25 341.524 515.627 341.49 516.007C341.467 516.393 341.565 516.77 341.784 517.136C342.015 517.496 342.373 517.816 342.858 518.096C343.343 518.376 343.897 518.583 344.521 518.716C345.156 518.843 345.814 518.896 346.496 518.876C347.177 518.856 347.841 518.766 348.487 518.606C349.146 518.44 349.746 518.2 350.289 517.886C350.82 517.58 351.224 517.24 351.501 516.866C351.79 516.487 351.946 516.103 351.969 515.717C352.004 515.323 351.911 514.943 351.692 514.577C351.484 514.217 351.138 513.897 350.653 513.617C350.168 513.337 349.608 513.133 348.972 513.007C348.337 512.88 347.679 512.827 346.998 512.847C346.328 512.873 345.653 512.97 344.971 513.137C344.313 513.303 343.718 513.54 343.187 513.847ZM351.429 523.944C350.736 523.544 350.187 523.094 349.783 522.594C349.379 522.094 349.171 521.574 349.159 521.034L350.181 520.944C350.228 521.477 350.407 521.954 350.718 522.374C351.03 522.794 351.498 523.184 352.121 523.544C352.907 523.997 353.698 524.267 354.494 524.354C355.314 524.441 356.019 524.314 356.607 523.974C356.885 523.814 357.052 523.644 357.11 523.464C357.191 523.284 357.173 523.087 357.058 522.874C356.954 522.654 356.775 522.411 356.521 522.144C356.267 521.877 355.961 521.574 355.603 521.234C355.21 520.874 354.881 520.551 354.616 520.264C354.362 519.984 354.194 519.728 354.113 519.494C354.032 519.261 354.044 519.041 354.148 518.834C354.263 518.634 354.5 518.431 354.858 518.224C355.308 517.964 355.788 517.788 356.296 517.694C356.804 517.601 357.318 517.578 357.837 517.624C358.368 517.678 358.882 517.788 359.379 517.954C359.898 518.121 360.383 518.334 360.834 518.594C361.538 519.001 362.04 519.431 362.341 519.884C362.652 520.331 362.774 520.748 362.704 521.134L361.752 521.124C361.798 520.751 361.665 520.374 361.353 519.994C361.053 519.621 360.632 519.278 360.089 518.964C359.754 518.771 359.402 518.608 359.032 518.474C358.674 518.348 358.311 518.264 357.941 518.224C357.572 518.184 357.202 518.198 356.833 518.264C356.475 518.324 356.134 518.448 355.811 518.634C355.545 518.788 355.372 518.934 355.291 519.074C355.222 519.221 355.222 519.381 355.291 519.554C355.372 519.734 355.516 519.938 355.724 520.164C355.943 520.384 356.209 520.644 356.521 520.944C356.948 521.351 357.318 521.717 357.629 522.044C357.941 522.371 358.149 522.671 358.253 522.944C358.368 523.224 358.374 523.481 358.27 523.714C358.178 523.954 357.935 524.187 357.543 524.414C356.734 524.881 355.77 525.071 354.65 524.984C353.553 524.897 352.479 524.551 351.429 523.944ZM361.309 529.648C360.535 529.201 360.045 528.685 359.837 528.098C359.652 527.512 359.669 526.942 359.889 526.388L354.26 529.638L353.393 529.138L366.09 521.809L366.886 522.269L365.085 523.308C366.032 523.188 366.985 523.198 367.943 523.338C368.925 523.478 369.762 523.748 370.455 524.148C371.078 524.508 371.523 524.918 371.788 525.378C372.054 525.838 372.158 526.305 372.1 526.778C372.054 527.245 371.852 527.702 371.494 528.148C371.147 528.601 370.68 528.998 370.091 529.338C369.467 529.698 368.774 529.985 368.012 530.198C367.25 530.411 366.471 530.535 365.674 530.568C364.889 530.608 364.115 530.555 363.353 530.408C362.602 530.255 361.921 530.001 361.309 529.648ZM361.881 529.078C362.4 529.378 362.983 529.588 363.63 529.708C364.277 529.828 364.929 529.871 365.587 529.838C366.257 529.798 366.904 529.691 367.527 529.518C368.162 529.338 368.722 529.108 369.207 528.828C369.727 528.528 370.125 528.192 370.403 527.818C370.691 527.438 370.847 527.048 370.87 526.648C370.905 526.255 370.807 525.872 370.576 525.498C370.356 525.118 369.998 524.785 369.502 524.498C369.19 524.318 368.786 524.165 368.289 524.038C367.816 523.912 367.308 523.825 366.765 523.778C366.234 523.725 365.714 523.718 365.206 523.758C364.698 523.798 364.265 523.902 363.907 524.068L360.945 525.778C360.761 526.058 360.639 526.348 360.582 526.648C360.524 526.948 360.53 527.245 360.599 527.538C360.668 527.832 360.807 528.112 361.015 528.378C361.234 528.638 361.523 528.871 361.881 529.078ZM369.732 534.511C369.317 534.271 368.999 534.008 368.78 533.721C368.572 533.428 368.451 533.131 368.416 532.831C368.404 532.531 368.491 532.241 368.676 531.961C368.872 531.674 369.167 531.418 369.559 531.191C369.952 530.964 370.402 530.811 370.91 530.731C371.418 530.651 371.949 530.638 372.504 530.691C373.081 530.744 373.664 530.868 374.253 531.061C374.854 531.248 375.431 531.501 375.985 531.821C376.47 532.101 376.909 532.408 377.302 532.741C377.717 533.074 378.046 533.398 378.289 533.711L379.172 533.201C380.027 532.708 380.46 532.178 380.471 531.611C380.494 531.038 380.09 530.511 379.259 530.031C378.82 529.778 378.26 529.561 377.579 529.381C376.909 529.208 376.147 529.074 375.292 528.981L375.552 528.451C377.492 528.665 378.982 529.071 380.021 529.671C381.106 530.298 381.643 530.974 381.632 531.701C381.632 532.421 381.078 533.101 379.969 533.741L375.57 536.281C375.281 536.447 375.263 536.604 375.518 536.751L374.738 537.201C374.669 537.174 374.6 537.141 374.53 537.101C374.461 537.074 374.403 537.047 374.357 537.021C374.126 536.887 374.016 536.737 374.028 536.571C374.051 536.397 374.161 536.241 374.357 536.101L375.102 535.671C374.143 535.744 373.197 535.677 372.261 535.471C371.326 535.264 370.483 534.944 369.732 534.511ZM370.598 534.211C371.268 534.597 372.007 534.877 372.815 535.051C373.635 535.231 374.403 535.287 375.119 535.221C375.546 535.187 375.87 535.107 376.089 534.981L377.683 534.061C377.429 533.728 377.117 533.408 376.747 533.101C376.378 532.794 375.951 532.501 375.466 532.221C375.015 531.961 374.553 531.754 374.08 531.601C373.618 531.441 373.168 531.334 372.729 531.281C372.29 531.228 371.869 531.231 371.464 531.291C371.083 531.351 370.743 531.468 370.443 531.641C370.142 531.814 369.917 532.011 369.767 532.231C369.617 532.451 369.548 532.678 369.559 532.911C369.582 533.138 369.675 533.364 369.836 533.591C370.021 533.818 370.275 534.024 370.598 534.211ZM381.376 540.532C381.306 540.519 381.179 540.499 380.994 540.472C380.833 540.446 380.636 540.399 380.406 540.332C380.186 540.272 379.949 540.196 379.695 540.102C379.441 540.009 379.193 539.892 378.951 539.752C378.708 539.613 378.512 539.459 378.362 539.293C378.223 539.133 378.142 538.966 378.119 538.793C378.096 538.619 378.137 538.449 378.24 538.283C378.344 538.116 378.529 537.956 378.795 537.803L385.584 533.883L384.32 533.153L385.03 532.743L386.295 533.473L389.378 531.693L390.244 532.193L387.161 533.973L389.257 535.183L388.546 535.593L386.451 534.383L379.869 538.183C379.534 538.376 379.395 538.589 379.453 538.823C379.522 539.049 379.701 539.246 379.99 539.413C380.348 539.619 380.712 539.762 381.081 539.842C381.474 539.922 381.716 539.969 381.809 539.982L381.376 540.532ZM382.472 541.665L391.479 536.466L392.345 536.966L383.338 542.165L382.472 541.665ZM393.523 535.286L395.116 534.366L395.982 534.866L394.389 535.786L393.523 535.286ZM388.102 545.116C387.686 544.876 387.369 544.612 387.149 544.326C386.941 544.032 386.82 543.736 386.786 543.436C386.774 543.136 386.861 542.846 387.045 542.566C387.242 542.279 387.536 542.022 387.929 541.796C388.321 541.569 388.772 541.416 389.28 541.336C389.788 541.256 390.319 541.243 390.873 541.296C391.451 541.349 392.034 541.472 392.623 541.666C393.223 541.852 393.801 542.106 394.355 542.426C394.84 542.706 395.279 543.012 395.671 543.346C396.087 543.679 396.416 544.002 396.658 544.316L397.542 543.806C398.396 543.312 398.829 542.782 398.841 542.216C398.864 541.642 398.46 541.116 397.628 540.636C397.19 540.383 396.63 540.166 395.948 539.986C395.279 539.813 394.516 539.679 393.662 539.586L393.922 539.056C395.862 539.269 397.351 539.676 398.391 540.276C399.476 540.903 400.013 541.579 400.001 542.306C400.001 543.026 399.447 543.706 398.339 544.346L393.939 546.885C393.65 547.052 393.633 547.209 393.887 547.355L393.108 547.805C393.038 547.779 392.969 547.745 392.9 547.705C392.831 547.679 392.773 547.652 392.727 547.625C392.496 547.492 392.386 547.342 392.398 547.175C392.421 547.002 392.53 546.845 392.727 546.705L393.471 546.276C392.513 546.349 391.566 546.282 390.631 546.076C389.695 545.869 388.853 545.549 388.102 545.116ZM388.968 544.816C389.638 545.202 390.377 545.482 391.185 545.656C392.005 545.836 392.773 545.892 393.489 545.826C393.916 545.792 394.239 545.712 394.459 545.586L396.052 544.666C395.798 544.332 395.486 544.012 395.117 543.706C394.747 543.399 394.32 543.106 393.835 542.826C393.385 542.566 392.923 542.359 392.45 542.206C391.988 542.046 391.537 541.939 391.098 541.886C390.66 541.832 390.238 541.836 389.834 541.896C389.453 541.956 389.112 542.072 388.812 542.246C388.512 542.419 388.287 542.616 388.137 542.836C387.987 543.056 387.917 543.282 387.929 543.516C387.952 543.742 388.044 543.969 388.206 544.196C388.391 544.422 388.645 544.629 388.968 544.816ZM408.075 541.847L408.958 542.357L398.098 548.626C397.763 548.82 397.59 549.026 397.578 549.246C397.578 549.473 397.746 549.683 398.081 549.876C398.208 549.95 398.369 550.03 398.566 550.116C398.785 550.203 398.999 550.273 399.207 550.326L398.687 550.826C398.41 550.76 398.104 550.656 397.769 550.516C397.423 550.383 397.145 550.256 396.938 550.136C396.453 549.856 396.204 549.546 396.193 549.206C396.204 548.866 396.458 548.553 396.955 548.266L408.075 541.847ZM404.011 554.1L416.309 547L417.192 547.51L404.894 554.61L404.011 554.1ZM415.223 560.572L414.357 560.072L419.38 557.173C420.546 556.499 421.227 555.913 421.424 555.413C421.632 554.92 421.378 554.466 420.662 554.053C420.281 553.833 419.83 553.653 419.311 553.513C418.802 553.38 418.26 553.293 417.682 553.253C417.105 553.213 416.522 553.223 415.933 553.283C415.356 553.336 414.813 553.443 414.305 553.603L408.727 556.823L407.861 556.323L416.868 551.123L417.682 551.593L415.535 552.833C416.066 552.74 416.603 552.69 417.145 552.683C417.711 552.676 418.26 552.713 418.791 552.793C419.345 552.873 419.865 552.993 420.35 553.153C420.846 553.306 421.297 553.5 421.701 553.733C422.682 554.3 423.029 554.9 422.74 555.533C422.463 556.159 421.684 556.843 420.402 557.583L415.223 560.572ZM418.155 562.265L426.452 557.476L425.187 556.746L425.898 556.336L427.162 557.066L427.456 556.896C428.565 556.256 429.65 555.889 430.713 555.796C431.787 555.696 432.722 555.876 433.519 556.336C433.865 556.536 434.148 556.759 434.367 557.006C434.587 557.252 434.714 557.486 434.748 557.706L433.813 557.886C433.779 557.719 433.68 557.542 433.519 557.356C433.369 557.176 433.167 557.012 432.912 556.866C432.324 556.526 431.631 556.399 430.834 556.486C430.06 556.572 429.229 556.872 428.34 557.386L428.028 557.566L430.591 559.045L429.881 559.455L427.318 557.976L419.021 562.765L418.155 562.265ZM426.417 567.235C425.782 566.868 425.314 566.458 425.014 566.005C424.737 565.552 424.616 565.088 424.65 564.615C424.685 564.142 424.875 563.678 425.222 563.225C425.568 562.772 426.053 562.365 426.677 562.005C427.312 561.639 428.022 561.355 428.807 561.155C429.604 560.962 430.412 560.855 431.232 560.835C432.052 560.815 432.849 560.889 433.622 561.055C434.419 561.222 435.129 561.485 435.753 561.845C436.377 562.205 436.827 562.612 437.104 563.065C437.393 563.512 437.52 563.972 437.485 564.445C437.462 564.925 437.277 565.392 436.931 565.845C436.596 566.305 436.111 566.718 435.476 567.085C434.852 567.445 434.142 567.721 433.345 567.915C432.56 568.115 431.758 568.225 430.938 568.245C430.118 568.265 429.31 568.191 428.513 568.025C427.739 567.858 427.041 567.595 426.417 567.235ZM427.508 562.525C426.977 562.832 426.567 563.175 426.278 563.555C426.001 563.928 425.845 564.305 425.811 564.685C425.788 565.072 425.886 565.448 426.105 565.815C426.336 566.175 426.694 566.495 427.179 566.775C427.664 567.055 428.218 567.262 428.842 567.395C429.477 567.521 430.135 567.575 430.816 567.555C431.498 567.535 432.162 567.445 432.808 567.285C433.467 567.118 434.067 566.878 434.61 566.565C435.141 566.258 435.545 565.918 435.822 565.545C436.111 565.165 436.267 564.782 436.29 564.395C436.325 564.002 436.232 563.622 436.013 563.255C435.805 562.895 435.458 562.575 434.974 562.295C434.489 562.015 433.928 561.812 433.293 561.685C432.658 561.559 432 561.505 431.319 561.525C430.649 561.552 429.974 561.649 429.292 561.815C428.634 561.982 428.039 562.219 427.508 562.525ZM445.553 568.583C444.722 568.129 443.769 567.859 442.695 567.773C441.644 567.686 440.599 567.803 439.56 568.123L433.931 571.373L433.065 570.873L442.072 565.673L442.903 566.153L440.686 567.433C441.633 567.246 442.557 567.186 443.457 567.253C444.381 567.319 445.166 567.506 445.813 567.813C445.94 567.873 446.05 567.929 446.142 567.983C446.234 568.036 446.309 568.079 446.367 568.113L445.553 568.583ZM452.201 581.92L451.335 581.42L456.358 578.52C457.501 577.86 458.165 577.27 458.35 576.75C458.546 576.237 458.281 575.77 457.553 575.35C457.184 575.137 456.762 574.974 456.289 574.861C455.815 574.747 455.313 574.684 454.782 574.671C454.262 574.651 453.725 574.681 453.171 574.761C452.64 574.841 452.109 574.967 451.578 575.14L446.018 578.35L445.152 577.85L450.175 574.951C451.329 574.284 451.999 573.697 452.184 573.191C452.38 572.677 452.115 572.211 451.387 571.791C451.018 571.577 450.596 571.414 450.123 571.301C449.672 571.187 449.182 571.124 448.65 571.111C448.131 571.091 447.588 571.117 447.022 571.191C446.479 571.264 445.943 571.387 445.411 571.561L439.834 574.781L438.968 574.281L447.975 569.081L448.789 569.551L446.641 570.791C447.738 570.584 448.789 570.537 449.794 570.651C450.798 570.764 451.664 571.031 452.392 571.451C453.154 571.891 453.546 572.377 453.57 572.911C453.593 573.444 453.287 573.947 452.652 574.421C455.134 573.974 457.126 574.184 458.627 575.051C459.609 575.617 459.955 576.224 459.666 576.87C459.401 577.517 458.639 578.204 457.38 578.93L452.201 581.92ZM456.861 584.81C456.445 584.57 456.128 584.307 455.909 584.02C455.701 583.727 455.579 583.43 455.545 583.13C455.533 582.83 455.62 582.54 455.805 582.26C456.001 581.974 456.295 581.717 456.688 581.49C457.081 581.264 457.531 581.11 458.039 581.031C458.547 580.951 459.078 580.937 459.633 580.991C460.21 581.044 460.793 581.167 461.382 581.36C461.982 581.547 462.56 581.8 463.114 582.12C463.599 582.4 464.038 582.707 464.43 583.04C464.846 583.374 465.175 583.697 465.418 584.01L466.301 583.5C467.156 583.007 467.589 582.477 467.6 581.91C467.623 581.337 467.219 580.811 466.388 580.331C465.949 580.077 465.389 579.861 464.708 579.681C464.038 579.507 463.276 579.374 462.421 579.281L462.681 578.751C464.621 578.964 466.111 579.371 467.15 579.971C468.235 580.597 468.772 581.274 468.761 582C468.761 582.72 468.206 583.4 467.098 584.04L462.698 586.58C462.41 586.747 462.392 586.903 462.646 587.05L461.867 587.5C461.798 587.473 461.728 587.44 461.659 587.4C461.59 587.373 461.532 587.347 461.486 587.32C461.255 587.187 461.145 587.037 461.157 586.87C461.18 586.697 461.29 586.54 461.486 586.4L462.231 585.97C461.272 586.044 460.325 585.977 459.39 585.77C458.455 585.564 457.612 585.244 456.861 584.81ZM457.727 584.51C458.397 584.897 459.136 585.177 459.944 585.35C460.764 585.53 461.532 585.587 462.248 585.52C462.675 585.487 462.999 585.407 463.218 585.28L464.811 584.36C464.557 584.027 464.246 583.707 463.876 583.4C463.507 583.094 463.079 582.8 462.594 582.52C462.144 582.26 461.682 582.054 461.209 581.9C460.747 581.74 460.296 581.634 459.858 581.58C459.419 581.527 458.997 581.53 458.593 581.59C458.212 581.65 457.872 581.767 457.571 581.94C457.271 582.114 457.046 582.31 456.896 582.53C456.746 582.75 456.676 582.977 456.688 583.21C456.711 583.437 456.803 583.664 456.965 583.89C457.15 584.117 457.404 584.324 457.727 584.51ZM468.504 590.832C468.435 590.819 468.308 590.799 468.123 590.772C467.962 590.745 467.765 590.699 467.534 590.632C467.315 590.572 467.078 590.495 466.824 590.402C466.57 590.309 466.322 590.192 466.079 590.052C465.837 589.912 465.641 589.759 465.49 589.592C465.352 589.432 465.271 589.265 465.248 589.092C465.225 588.919 465.265 588.749 465.369 588.582C465.473 588.415 465.658 588.255 465.924 588.102L472.713 584.182L471.449 583.452L472.159 583.042L473.423 583.772L476.507 581.992L477.373 582.492L474.289 584.272L476.385 585.482L475.675 585.892L473.579 584.682L466.997 588.482C466.663 588.675 466.524 588.889 466.582 589.122C466.651 589.349 466.83 589.545 467.119 589.712C467.477 589.919 467.84 590.062 468.21 590.142C468.602 590.222 468.845 590.269 468.937 590.282L468.504 590.832ZM469.601 591.965L478.608 586.765L479.474 587.265L470.467 592.465L469.601 591.965ZM480.652 585.585L482.245 584.665L483.111 585.165L481.518 586.085L480.652 585.585ZM476.79 596.315C476.155 595.948 475.687 595.538 475.387 595.085C475.11 594.632 474.988 594.168 475.023 593.695C475.058 593.222 475.248 592.759 475.595 592.305C475.941 591.852 476.426 591.445 477.049 591.085C477.685 590.719 478.395 590.435 479.18 590.235C479.977 590.042 480.785 589.935 481.605 589.915C482.425 589.895 483.221 589.969 483.995 590.135C484.792 590.302 485.502 590.565 486.126 590.925C486.749 591.285 487.2 591.692 487.477 592.145C487.765 592.592 487.892 593.052 487.858 593.525C487.835 594.005 487.65 594.472 487.303 594.925C486.969 595.385 486.484 595.798 485.848 596.165C485.225 596.525 484.515 596.802 483.718 596.995C482.933 597.195 482.13 597.305 481.31 597.325C480.491 597.345 479.682 597.272 478.885 597.105C478.112 596.938 477.413 596.675 476.79 596.315ZM477.881 591.605C477.35 591.912 476.94 592.255 476.651 592.635C476.374 593.009 476.218 593.385 476.183 593.765C476.16 594.152 476.258 594.528 476.478 594.895C476.709 595.255 477.067 595.575 477.552 595.855C478.037 596.135 478.591 596.342 479.215 596.475C479.85 596.602 480.508 596.655 481.189 596.635C481.87 596.615 482.534 596.525 483.181 596.365C483.839 596.198 484.44 595.958 484.982 595.645C485.514 595.338 485.918 594.998 486.195 594.625C486.484 594.245 486.639 593.862 486.663 593.475C486.697 593.082 486.605 592.702 486.385 592.335C486.178 591.975 485.831 591.655 485.346 591.375C484.861 591.095 484.301 590.892 483.666 590.765C483.031 590.639 482.373 590.585 481.691 590.605C481.022 590.632 480.346 590.729 479.665 590.895C479.007 591.062 478.412 591.299 477.881 591.605ZM490.799 604.202L489.933 603.702L494.956 600.803C496.122 600.129 496.803 599.543 497 599.043C497.207 598.549 496.953 598.096 496.237 597.683C495.856 597.463 495.406 597.283 494.886 597.143C494.378 597.01 493.836 596.923 493.258 596.883C492.681 596.843 492.098 596.853 491.509 596.913C490.932 596.966 490.389 597.073 489.881 597.233L484.303 600.453L483.437 599.953L492.444 594.753L493.258 595.223L491.111 596.463C491.642 596.37 492.179 596.32 492.721 596.313C493.287 596.306 493.836 596.343 494.367 596.423C494.921 596.503 495.441 596.623 495.926 596.783C496.422 596.936 496.873 597.13 497.277 597.363C498.258 597.93 498.605 598.529 498.316 599.163C498.039 599.789 497.259 600.473 495.978 601.213L490.799 604.202ZM313.728 513.139C313.82 512.165 313.139 511.259 311.684 510.419C310.483 509.726 309.375 509.352 308.358 509.299C307.365 509.246 306.482 509.442 305.708 509.889C305.316 510.116 305.056 510.346 304.929 510.579C304.813 510.806 304.808 511.055 304.912 511.329C305.027 511.609 305.246 511.915 305.57 512.249C305.893 512.582 306.303 512.972 306.799 513.419C307.319 513.879 307.758 514.312 308.116 514.719C308.497 515.125 308.745 515.509 308.861 515.869C308.988 516.235 308.965 516.582 308.791 516.908C308.63 517.242 308.278 517.565 307.735 517.878C307.192 518.192 306.609 518.402 305.985 518.508C305.373 518.622 304.733 518.645 304.063 518.578C303.416 518.512 302.752 518.362 302.071 518.128C301.401 517.902 300.737 517.598 300.079 517.218C298.162 516.112 297.152 514.822 297.048 513.349L298.226 513.209C298.203 513.822 298.405 514.439 298.832 515.059C299.271 515.672 299.958 516.248 300.893 516.788C301.967 517.408 303 517.778 303.994 517.898C304.998 518.025 305.899 517.858 306.696 517.398C307.1 517.165 307.36 516.922 307.475 516.668C307.602 516.408 307.608 516.125 307.492 515.819C307.388 515.519 307.169 515.185 306.834 514.819C306.499 514.452 306.078 514.042 305.57 513.589C305.05 513.129 304.611 512.709 304.253 512.329C303.918 511.949 303.693 511.592 303.578 511.259C303.485 510.925 303.52 510.612 303.682 510.319C303.843 510.026 304.178 509.732 304.686 509.439C305.241 509.119 305.835 508.896 306.47 508.769C307.117 508.649 307.775 508.616 308.445 508.669C309.126 508.716 309.808 508.849 310.489 509.069C311.17 509.289 311.834 509.586 312.481 509.959C313.278 510.419 313.866 510.899 314.247 511.399C314.64 511.892 314.848 512.425 314.871 512.999L313.728 513.139ZM303.801 522.767C303.847 522.807 303.928 522.86 304.044 522.927C304.159 522.994 304.269 523.05 304.373 523.097C304.488 523.15 304.615 523.19 304.754 523.217C304.858 523.237 304.973 523.244 305.1 523.237C305.216 523.237 305.423 523.21 305.724 523.157C306.024 523.104 306.445 523.014 306.988 522.887C307.531 522.76 308.27 522.587 309.205 522.367L314.194 514.847L315.094 515.367L310.522 522.147L322.023 519.367L322.871 519.857L306.087 523.847C305.637 523.96 305.181 523.984 304.719 523.917C304.257 523.864 303.784 523.697 303.299 523.417C303.253 523.39 303.201 523.36 303.143 523.327C303.097 523.3 303.051 523.267 303.004 523.227L303.801 522.767ZM318.079 527.69C317.386 527.29 316.838 526.84 316.434 526.34C316.029 525.84 315.822 525.32 315.81 524.78L316.832 524.69C316.878 525.223 317.057 525.7 317.369 526.12C317.681 526.54 318.148 526.93 318.772 527.29C319.557 527.743 320.348 528.013 321.145 528.1C321.965 528.186 322.669 528.06 323.258 527.72C323.535 527.56 323.703 527.39 323.76 527.21C323.841 527.03 323.824 526.833 323.708 526.62C323.604 526.4 323.425 526.157 323.171 525.89C322.917 525.623 322.611 525.32 322.253 524.98C321.861 524.62 321.532 524.297 321.266 524.01C321.012 523.73 320.845 523.473 320.764 523.24C320.683 523.007 320.694 522.787 320.798 522.58C320.914 522.38 321.151 522.177 321.509 521.97C321.959 521.71 322.438 521.534 322.946 521.44C323.454 521.347 323.968 521.324 324.488 521.37C325.019 521.424 325.533 521.534 326.029 521.7C326.549 521.867 327.034 522.08 327.484 522.34C328.189 522.747 328.691 523.177 328.991 523.63C329.303 524.077 329.424 524.493 329.355 524.88L328.402 524.87C328.448 524.497 328.316 524.12 328.004 523.74C327.704 523.367 327.282 523.023 326.739 522.71C326.405 522.517 326.052 522.354 325.683 522.22C325.325 522.094 324.961 522.01 324.592 521.97C324.222 521.93 323.853 521.944 323.483 522.01C323.125 522.07 322.785 522.194 322.461 522.38C322.196 522.534 322.022 522.68 321.942 522.82C321.872 522.967 321.872 523.127 321.942 523.3C322.022 523.48 322.167 523.683 322.375 523.91C322.594 524.13 322.86 524.39 323.171 524.69C323.599 525.097 323.968 525.463 324.28 525.79C324.592 526.117 324.8 526.417 324.903 526.69C325.019 526.97 325.025 527.227 324.921 527.46C324.828 527.7 324.586 527.933 324.193 528.16C323.385 528.626 322.421 528.816 321.301 528.73C320.204 528.643 319.13 528.296 318.079 527.69ZM328.185 532.824C328.116 532.811 327.989 532.791 327.804 532.764C327.642 532.737 327.446 532.691 327.215 532.624C326.995 532.564 326.759 532.487 326.505 532.394C326.251 532.301 326.002 532.184 325.76 532.044C325.517 531.904 325.321 531.751 325.171 531.584C325.032 531.424 324.952 531.257 324.929 531.084C324.905 530.911 324.946 530.741 325.05 530.574C325.154 530.407 325.338 530.247 325.604 530.094L332.394 526.174L331.129 525.444L331.84 525.034L333.104 525.764L336.187 523.985L337.053 524.485L333.97 526.264L336.066 527.474L335.356 527.884L333.26 526.674L326.678 530.474C326.343 530.667 326.204 530.881 326.262 531.114C326.331 531.341 326.51 531.537 326.799 531.704C327.157 531.911 327.521 532.054 327.89 532.134C328.283 532.214 328.525 532.261 328.618 532.274L328.185 532.824ZM332.716 536.14C332.081 535.773 331.614 535.363 331.313 534.91C331.025 534.45 330.892 533.98 330.915 533.5C330.961 533.02 331.152 532.55 331.486 532.09C331.833 531.637 332.329 531.224 332.976 530.85C333.611 530.484 334.316 530.204 335.089 530.01C335.886 529.817 336.689 529.714 337.497 529.7C338.317 529.68 339.113 529.754 339.887 529.92C340.672 530.094 341.377 530.36 342 530.72C342.635 531.087 343.097 531.5 343.386 531.96C343.686 532.413 343.819 532.877 343.784 533.35C343.761 533.817 343.576 534.277 343.23 534.73C342.895 535.177 342.416 535.58 341.792 535.94C341.735 535.973 341.66 536.017 341.567 536.07C341.486 536.117 341.429 536.143 341.394 536.15L333.496 531.59C333.011 531.91 332.647 532.26 332.404 532.64C332.174 533.013 332.052 533.383 332.041 533.75C332.041 534.123 332.156 534.483 332.387 534.83C332.618 535.177 332.97 535.487 333.444 535.76C333.756 535.94 334.102 536.093 334.483 536.22C334.876 536.34 335.274 536.43 335.678 536.49C336.094 536.557 336.504 536.587 336.908 536.58C337.335 536.573 337.734 536.53 338.103 536.45L338.657 537.01C338.207 537.123 337.716 537.187 337.185 537.2C336.677 537.213 336.157 537.18 335.626 537.1C335.107 537.027 334.598 536.907 334.102 536.74C333.594 536.58 333.132 536.38 332.716 536.14ZM341.273 535.28C341.769 534.953 342.133 534.603 342.364 534.23C342.607 533.863 342.722 533.497 342.71 533.13C342.722 532.763 342.607 532.41 342.364 532.07C342.133 531.724 341.781 531.414 341.307 531.14C340.834 530.867 340.297 530.664 339.697 530.53C339.108 530.39 338.49 530.32 337.843 530.32C337.22 530.32 336.585 530.394 335.938 530.54C335.314 530.687 334.725 530.9 334.171 531.18L341.273 535.28ZM352.393 547.299L351.527 546.799L356.55 543.899C357.693 543.24 358.357 542.65 358.542 542.13C358.738 541.616 358.473 541.15 357.745 540.73C357.376 540.516 356.954 540.353 356.481 540.24C356.007 540.126 355.505 540.063 354.974 540.05C354.454 540.03 353.917 540.06 353.363 540.14C352.832 540.22 352.301 540.346 351.769 540.52L346.209 543.73L345.343 543.23L350.366 540.33C351.521 539.663 352.191 539.076 352.376 538.57C352.572 538.057 352.306 537.59 351.579 537.17C351.209 536.957 350.788 536.793 350.314 536.68C349.864 536.567 349.373 536.503 348.842 536.49C348.323 536.47 347.78 536.497 347.214 536.57C346.671 536.643 346.134 536.767 345.603 536.94L340.026 540.16L339.16 539.66L348.167 534.46L348.981 534.93L346.833 536.17C347.93 535.963 348.981 535.917 349.985 536.03C350.99 536.143 351.856 536.41 352.583 536.83C353.346 537.27 353.738 537.757 353.761 538.29C353.784 538.823 353.478 539.326 352.843 539.8C355.326 539.353 357.318 539.563 358.819 540.43C359.801 540.996 360.147 541.603 359.858 542.25C359.593 542.896 358.831 543.583 357.572 544.309L352.393 547.299ZM357.694 550.559C357.001 550.159 356.452 549.71 356.048 549.21C355.644 548.71 355.436 548.19 355.425 547.65L356.447 547.56C356.493 548.093 356.672 548.57 356.984 548.99C357.295 549.41 357.763 549.799 358.387 550.159C359.172 550.613 359.963 550.883 360.76 550.969C361.579 551.056 362.284 550.929 362.873 550.589C363.15 550.429 363.317 550.259 363.375 550.079C363.456 549.899 363.439 549.703 363.323 549.49C363.219 549.27 363.04 549.026 362.786 548.76C362.532 548.493 362.226 548.19 361.868 547.85C361.476 547.49 361.146 547.166 360.881 546.88C360.627 546.6 360.459 546.343 360.379 546.11C360.298 545.876 360.309 545.656 360.413 545.45C360.529 545.25 360.765 545.046 361.123 544.84C361.574 544.58 362.053 544.403 362.561 544.31C363.069 544.217 363.583 544.193 364.103 544.24C364.634 544.293 365.148 544.403 365.644 544.57C366.164 544.736 366.649 544.95 367.099 545.21C367.803 545.616 368.306 546.046 368.606 546.5C368.918 546.946 369.039 547.363 368.97 547.75L368.017 547.74C368.063 547.366 367.93 546.99 367.619 546.61C367.318 546.236 366.897 545.893 366.354 545.58C366.019 545.386 365.667 545.223 365.298 545.09C364.94 544.963 364.576 544.88 364.206 544.84C363.837 544.8 363.467 544.813 363.098 544.88C362.74 544.94 362.399 545.063 362.076 545.25C361.81 545.403 361.637 545.55 361.556 545.69C361.487 545.836 361.487 545.996 361.556 546.17C361.637 546.35 361.782 546.553 361.989 546.78C362.209 547 362.474 547.26 362.786 547.56C363.213 547.966 363.583 548.333 363.895 548.66C364.206 548.986 364.414 549.286 364.518 549.56C364.634 549.839 364.639 550.096 364.536 550.329C364.443 550.569 364.201 550.803 363.808 551.029C363 551.496 362.036 551.686 360.915 551.599C359.819 551.513 358.745 551.166 357.694 550.559Z" fill="#C5C5C5"/>
<path d="M597.53 488.56L585.232 481.46L589.32 479.1C590.29 478.54 591.3 478.144 592.351 477.91C593.413 477.67 594.464 477.57 595.503 477.61C596.543 477.65 597.559 477.817 598.552 478.11C599.533 478.397 600.446 478.784 601.288 479.27C602.224 479.81 602.934 480.38 603.419 480.98C603.904 481.567 604.164 482.163 604.198 482.77C604.221 483.37 604.019 483.967 603.592 484.56C603.165 485.14 602.507 485.687 601.618 486.2L597.53 488.56ZM600.405 479.78C599.631 479.334 598.812 478.987 597.946 478.74C597.068 478.487 596.179 478.347 595.278 478.32C594.389 478.287 593.506 478.37 592.628 478.57C591.75 478.77 590.913 479.1 590.117 479.56L586.912 481.41L597.616 487.59L600.821 485.74C601.629 485.273 602.207 484.787 602.553 484.28C602.899 483.76 603.038 483.24 602.969 482.72C602.899 482.2 602.645 481.693 602.207 481.2C601.768 480.694 601.167 480.22 600.405 479.78ZM612.008 480.401C611.593 480.641 611.136 480.825 610.64 480.951C610.132 481.071 609.618 481.141 609.098 481.161C608.579 481.168 608.076 481.118 607.591 481.011C607.095 480.898 606.65 480.728 606.258 480.501C605.865 480.275 605.6 480.015 605.461 479.721C605.322 479.428 605.299 479.121 605.392 478.801C605.484 478.468 605.698 478.131 606.033 477.791C606.356 477.445 606.795 477.112 607.349 476.792C607.834 476.512 608.365 476.258 608.942 476.032C609.52 475.792 610.08 475.602 610.623 475.462L609.739 474.952C608.885 474.458 607.967 474.208 606.985 474.202C605.992 474.188 605.08 474.422 604.248 474.902C603.81 475.155 603.434 475.478 603.123 475.872C602.822 476.258 602.591 476.698 602.43 477.192L601.512 477.042C601.881 475.922 602.586 475.062 603.625 474.462C604.71 473.835 605.882 473.525 607.141 473.532C608.388 473.532 609.566 473.852 610.675 474.492L615.074 477.032C615.363 477.198 615.634 477.208 615.888 477.062L616.668 477.512C616.621 477.552 616.564 477.592 616.494 477.632C616.448 477.672 616.402 477.705 616.356 477.731C616.125 477.865 615.865 477.928 615.576 477.921C615.276 477.908 615.005 477.845 614.762 477.731L614.017 477.302C614.144 477.855 614.029 478.401 613.671 478.941C613.313 479.481 612.759 479.968 612.008 480.401ZM611.489 479.901C612.158 479.515 612.643 479.088 612.944 478.621C613.255 478.148 613.353 477.705 613.238 477.292C613.18 477.045 613.042 476.858 612.822 476.732L611.229 475.812C610.651 475.958 610.097 476.138 609.566 476.352C609.035 476.565 608.527 476.812 608.042 477.092C607.591 477.352 607.233 477.618 606.968 477.891C606.691 478.158 606.506 478.418 606.414 478.671C606.321 478.925 606.327 479.168 606.431 479.401C606.535 479.621 606.737 479.818 607.037 479.991C607.337 480.165 607.678 480.295 608.059 480.381C608.44 480.468 608.833 480.508 609.237 480.501C609.629 480.488 610.022 480.435 610.415 480.341C610.807 480.235 611.165 480.088 611.489 479.901ZM622.439 473.68C622.416 473.72 622.381 473.793 622.335 473.9C622.289 473.993 622.208 474.106 622.093 474.24C621.989 474.366 621.856 474.503 621.694 474.65C621.532 474.796 621.33 474.94 621.088 475.08C620.845 475.22 620.58 475.333 620.291 475.42C620.014 475.5 619.725 475.546 619.425 475.56C619.125 475.573 618.83 475.55 618.542 475.49C618.253 475.43 617.976 475.323 617.71 475.17L610.921 471.25L609.656 471.98L608.946 471.57L610.21 470.84L607.127 469.06L607.993 468.56L611.076 470.34L613.172 469.13L613.882 469.54L611.787 470.75L618.369 474.55C618.703 474.743 619.073 474.823 619.477 474.79C619.87 474.75 620.21 474.646 620.499 474.48C620.857 474.273 621.105 474.063 621.244 473.85C621.382 473.623 621.463 473.483 621.486 473.43L622.439 473.68ZM626.792 471.867C626.376 472.107 625.92 472.29 625.424 472.417C624.915 472.537 624.402 472.607 623.882 472.627C623.362 472.633 622.86 472.583 622.375 472.477C621.879 472.363 621.434 472.193 621.041 471.967C620.649 471.74 620.383 471.48 620.245 471.187C620.106 470.893 620.083 470.587 620.175 470.267C620.268 469.934 620.481 469.597 620.816 469.257C621.139 468.91 621.578 468.577 622.133 468.257C622.618 467.977 623.149 467.724 623.726 467.497C624.303 467.257 624.863 467.067 625.406 466.927L624.523 466.417C623.668 465.924 622.75 465.674 621.769 465.667C620.776 465.654 619.864 465.887 619.032 466.367C618.593 466.62 618.218 466.944 617.906 467.337C617.606 467.724 617.375 468.164 617.213 468.657L616.295 468.507C616.665 467.387 617.369 466.527 618.409 465.927C619.494 465.3 620.666 464.991 621.925 464.997C623.172 464.997 624.35 465.317 625.458 465.957L629.858 468.497C630.146 468.664 630.418 468.674 630.672 468.527L631.451 468.977C631.405 469.017 631.347 469.057 631.278 469.097C631.232 469.137 631.186 469.17 631.139 469.197C630.908 469.33 630.649 469.394 630.36 469.387C630.06 469.374 629.788 469.31 629.546 469.197L628.801 468.767C628.928 469.32 628.813 469.867 628.455 470.407C628.097 470.947 627.542 471.433 626.792 471.867ZM626.272 471.367C626.942 470.98 627.427 470.553 627.727 470.087C628.039 469.614 628.137 469.17 628.022 468.757C627.964 468.51 627.825 468.324 627.606 468.197L626.012 467.277C625.435 467.424 624.881 467.604 624.35 467.817C623.818 468.03 623.31 468.277 622.825 468.557C622.375 468.817 622.017 469.084 621.751 469.357C621.474 469.624 621.29 469.884 621.197 470.137C621.105 470.39 621.111 470.633 621.215 470.867C621.318 471.087 621.521 471.283 621.821 471.457C622.121 471.63 622.462 471.76 622.843 471.847C623.224 471.933 623.616 471.973 624.021 471.967C624.413 471.953 624.806 471.9 625.198 471.807C625.591 471.7 625.949 471.553 626.272 471.367ZM638.413 464.958L626.115 457.858L631.173 454.938C631.693 454.638 632.282 454.425 632.94 454.298C633.598 454.172 634.268 454.125 634.949 454.158C635.63 454.178 636.289 454.272 636.924 454.438C637.559 454.592 638.107 454.802 638.569 455.068C639.066 455.355 639.458 455.682 639.747 456.048C640.047 456.408 640.22 456.782 640.267 457.168C640.324 457.548 640.249 457.925 640.041 458.298C639.822 458.665 639.452 458.998 638.933 459.298L634.655 461.768L639.297 464.448L638.413 464.958ZM633.841 461.298L638.084 458.848C638.488 458.615 638.771 458.358 638.933 458.078C639.083 457.792 639.129 457.505 639.071 457.218C639.014 456.918 638.864 456.632 638.621 456.358C638.379 456.072 638.061 455.815 637.668 455.588C637.264 455.355 636.808 455.178 636.3 455.058C635.792 454.925 635.272 454.852 634.741 454.838C634.222 454.818 633.714 454.858 633.217 454.958C632.732 455.052 632.305 455.205 631.935 455.418L627.796 457.808L633.841 461.298ZM644.945 451.688C644.16 452.168 643.692 452.718 643.542 453.338C643.392 453.944 643.594 454.547 644.148 455.147L649.777 458.397L648.911 458.897L639.904 453.698L640.736 453.218L642.953 454.497C642.63 453.951 642.526 453.418 642.641 452.898C642.757 452.364 643.08 451.911 643.611 451.538C643.715 451.464 643.813 451.401 643.906 451.348C643.998 451.294 644.073 451.251 644.131 451.218L644.945 451.688ZM658.307 453.673C657.672 454.04 656.962 454.31 656.177 454.483C655.391 454.643 654.589 454.713 653.769 454.693C652.949 454.673 652.147 454.563 651.361 454.363C650.576 454.163 649.872 453.883 649.248 453.523C648.613 453.156 648.122 452.746 647.776 452.293C647.441 451.833 647.256 451.366 647.222 450.893C647.187 450.42 647.314 449.96 647.603 449.513C647.891 449.053 648.348 448.643 648.971 448.283C649.595 447.923 650.299 447.663 651.084 447.503C651.858 447.337 652.655 447.263 653.475 447.283C654.306 447.297 655.114 447.403 655.899 447.603C656.696 447.797 657.412 448.077 658.047 448.443C658.671 448.803 659.15 449.213 659.485 449.673C659.831 450.127 660.022 450.59 660.057 451.063C660.091 451.536 659.964 452.003 659.675 452.463C659.387 452.91 658.931 453.313 658.307 453.673ZM650.149 453.043C650.68 453.35 651.275 453.586 651.933 453.753C652.58 453.913 653.232 454.003 653.89 454.023C654.56 454.036 655.212 453.98 655.848 453.853C656.471 453.72 657.025 453.513 657.51 453.233C657.995 452.953 658.353 452.633 658.584 452.273C658.804 451.906 658.896 451.526 658.861 451.133C658.827 450.74 658.671 450.357 658.394 449.983C658.105 449.603 657.689 449.257 657.147 448.943C656.615 448.637 656.027 448.403 655.38 448.243C654.722 448.077 654.058 447.987 653.388 447.973C652.707 447.953 652.048 448.007 651.413 448.133C650.79 448.253 650.236 448.453 649.751 448.733C649.266 449.013 648.913 449.337 648.694 449.703C648.475 450.07 648.382 450.45 648.417 450.843C648.463 451.23 648.63 451.62 648.919 452.013C649.208 452.393 649.618 452.736 650.149 453.043ZM659.447 447.575C658.812 447.209 658.321 446.799 657.974 446.345C657.628 445.892 657.443 445.432 657.42 444.966C657.397 444.499 657.536 444.039 657.836 443.586C658.136 443.132 658.61 442.719 659.256 442.346C660.076 441.872 660.983 441.562 661.976 441.416C662.969 441.269 663.95 441.296 664.92 441.496L664.349 442.146C663.586 442.012 662.819 442.009 662.045 442.136C661.271 442.249 660.59 442.476 660.001 442.816C659.504 443.102 659.141 443.426 658.91 443.786C658.679 444.146 658.575 444.519 658.598 444.906C658.633 445.286 658.794 445.666 659.083 446.046C659.36 446.419 659.77 446.762 660.313 447.075C660.856 447.389 661.462 447.632 662.131 447.805C662.801 447.965 663.471 448.059 664.141 448.085C664.81 448.099 665.463 448.042 666.098 447.915C666.745 447.782 667.31 447.575 667.795 447.295C668.107 447.115 668.367 446.912 668.575 446.685C668.794 446.452 668.956 446.219 669.06 445.986C669.175 445.746 669.227 445.516 669.216 445.296C669.204 445.062 669.123 444.862 668.973 444.696L670.064 444.346C670.261 444.592 670.376 444.866 670.411 445.166C670.446 445.452 670.399 445.746 670.272 446.046C670.145 446.345 669.937 446.639 669.649 446.925C669.372 447.219 669.025 447.485 668.61 447.725C667.974 448.092 667.264 448.362 666.479 448.535C665.682 448.702 664.868 448.779 664.037 448.765C663.205 448.739 662.391 448.629 661.595 448.435C660.809 448.235 660.093 447.949 659.447 447.575ZM677.963 442.325C677.328 442.692 676.618 442.962 675.833 443.135C675.036 443.302 674.222 443.379 673.391 443.365C672.559 443.339 671.745 443.229 670.949 443.035C670.163 442.835 669.447 442.549 668.801 442.175C668.166 441.809 667.681 441.402 667.346 440.955C667.011 440.495 666.832 440.032 666.809 439.566C666.774 439.092 666.901 438.632 667.19 438.186C667.49 437.732 667.952 437.326 668.576 436.966C669.211 436.599 669.927 436.332 670.723 436.166C671.509 435.992 672.311 435.916 673.131 435.936C673.939 435.949 674.736 436.056 675.521 436.256C676.295 436.449 676.993 436.726 677.617 437.086C677.675 437.119 677.75 437.162 677.842 437.216C677.923 437.262 677.969 437.296 677.981 437.316L670.082 441.875C670.637 442.155 671.243 442.365 671.901 442.505C672.548 442.639 673.189 442.709 673.824 442.715C674.47 442.715 675.094 442.649 675.694 442.515C676.295 442.382 676.832 442.179 677.305 441.905C677.617 441.725 677.883 441.525 678.102 441.305C678.31 441.079 678.466 440.849 678.57 440.615C678.685 440.375 678.737 440.139 678.726 439.906C678.714 439.659 678.639 439.429 678.5 439.216L679.47 438.896C679.667 439.156 679.776 439.439 679.799 439.746C679.823 440.039 679.765 440.339 679.626 440.645C679.499 440.945 679.291 441.239 679.003 441.525C678.726 441.819 678.379 442.085 677.963 442.325ZM676.474 437.386C675.908 437.099 675.302 436.889 674.655 436.756C674.02 436.616 673.385 436.549 672.75 436.556C672.115 436.549 671.503 436.616 670.914 436.756C670.313 436.889 669.776 437.092 669.303 437.366C668.83 437.639 668.477 437.949 668.246 438.296C668.004 438.636 667.883 438.992 667.883 439.366C667.883 439.726 668.01 440.092 668.264 440.465C668.518 440.825 668.887 441.165 669.372 441.485L676.474 437.386ZM687.092 437.056C686.399 437.456 685.619 437.772 684.753 438.006C683.887 438.239 682.987 438.359 682.051 438.366L681.895 437.776C682.819 437.749 683.645 437.646 684.372 437.466C685.1 437.286 685.775 437.016 686.399 436.656C687.184 436.202 687.652 435.746 687.802 435.286C687.952 434.812 687.733 434.406 687.144 434.066C686.867 433.906 686.572 433.809 686.26 433.776C685.949 433.729 685.608 433.739 685.238 433.806C684.857 433.866 684.436 433.969 683.974 434.116C683.512 434.262 682.987 434.439 682.398 434.646C681.774 434.872 681.214 435.062 680.718 435.216C680.233 435.362 679.788 435.459 679.384 435.506C678.98 435.552 678.599 435.546 678.241 435.486C677.894 435.419 677.542 435.282 677.184 435.076C676.734 434.816 676.428 434.539 676.266 434.246C676.104 433.953 676.064 433.656 676.145 433.356C676.237 433.049 676.428 432.753 676.716 432.466C677.005 432.166 677.375 431.886 677.825 431.626C678.529 431.219 679.274 430.929 680.059 430.756C680.833 430.576 681.555 430.506 682.225 430.546L682.207 431.096C681.561 431.069 680.908 431.146 680.25 431.326C679.603 431.499 679.009 431.743 678.466 432.056C678.131 432.249 677.848 432.453 677.617 432.666C677.398 432.873 677.253 433.083 677.184 433.296C677.115 433.509 677.138 433.723 677.253 433.936C677.357 434.142 677.571 434.339 677.894 434.526C678.16 434.679 678.414 434.779 678.656 434.826C678.91 434.866 679.188 434.866 679.488 434.826C679.8 434.779 680.152 434.696 680.544 434.576C680.925 434.449 681.376 434.296 681.895 434.116C682.6 433.869 683.235 433.656 683.801 433.476C684.367 433.296 684.886 433.176 685.36 433.116C685.845 433.049 686.289 433.046 686.693 433.106C687.109 433.159 687.513 433.299 687.906 433.526C688.714 433.993 689.043 434.549 688.893 435.196C688.743 435.829 688.143 436.449 687.092 437.056ZM695.431 432.241C694.738 432.641 693.958 432.958 693.092 433.191C692.226 433.425 691.326 433.545 690.39 433.551L690.234 432.961C691.158 432.935 691.984 432.831 692.711 432.651C693.439 432.471 694.114 432.202 694.738 431.842C695.523 431.388 695.991 430.932 696.141 430.472C696.291 429.998 696.072 429.592 695.483 429.252C695.206 429.092 694.911 428.995 694.599 428.962C694.288 428.915 693.947 428.925 693.577 428.992C693.196 429.052 692.775 429.155 692.313 429.302C691.851 429.448 691.326 429.625 690.737 429.832C690.113 430.058 689.553 430.248 689.057 430.402C688.572 430.548 688.127 430.645 687.723 430.692C687.319 430.738 686.938 430.732 686.58 430.672C686.233 430.605 685.881 430.468 685.523 430.262C685.073 430.002 684.767 429.725 684.605 429.432C684.444 429.138 684.403 428.842 684.484 428.542C684.576 428.235 684.767 427.938 685.056 427.652C685.344 427.352 685.714 427.072 686.164 426.812C686.868 426.405 687.613 426.115 688.398 425.942C689.172 425.762 689.894 425.692 690.564 425.732L690.546 426.282C689.9 426.255 689.247 426.332 688.589 426.512C687.942 426.685 687.348 426.929 686.805 427.242C686.47 427.435 686.187 427.638 685.956 427.852C685.737 428.058 685.592 428.268 685.523 428.482C685.454 428.695 685.477 428.908 685.592 429.122C685.696 429.328 685.91 429.525 686.233 429.712C686.499 429.865 686.753 429.965 686.995 430.012C687.25 430.052 687.527 430.052 687.827 430.012C688.139 429.965 688.491 429.882 688.883 429.762C689.265 429.635 689.715 429.482 690.234 429.302C690.939 429.055 691.574 428.842 692.14 428.662C692.706 428.482 693.225 428.362 693.699 428.302C694.184 428.235 694.628 428.232 695.032 428.292C695.448 428.345 695.852 428.485 696.245 428.712C697.053 429.178 697.382 429.735 697.232 430.382C697.082 431.015 696.482 431.635 695.431 432.241ZM700.739 428.977L691.732 423.778L692.598 423.278L701.605 428.477L700.739 428.977ZM689.688 422.598L688.094 421.678L688.96 421.178L690.554 422.098L689.688 422.598ZM711.686 422.657L710.82 423.157L705.797 420.258C704.631 419.584 703.614 419.191 702.748 419.078C701.894 418.958 701.109 419.104 700.393 419.518C700.012 419.738 699.7 419.998 699.457 420.298C699.227 420.591 699.076 420.904 699.007 421.237C698.938 421.571 698.955 421.907 699.059 422.247C699.151 422.581 699.336 422.894 699.613 423.187L705.191 426.407L704.325 426.907L695.318 421.707L696.132 421.237L698.28 422.477C698.118 422.171 698.031 421.861 698.02 421.547C698.008 421.221 698.072 420.904 698.21 420.597C698.349 420.278 698.557 419.978 698.834 419.698C699.099 419.411 699.434 419.151 699.839 418.918C700.82 418.351 701.859 418.151 702.956 418.318C704.042 418.478 705.225 418.928 706.507 419.668L711.686 422.657ZM718.08 419.126C717.457 419.486 716.758 419.742 715.985 419.896C715.199 420.042 714.403 420.102 713.594 420.076C712.786 420.036 711.995 419.919 711.221 419.726C710.459 419.526 709.784 419.256 709.195 418.916C708.583 418.563 708.092 418.166 707.723 417.726C707.365 417.279 707.157 416.826 707.099 416.366C707.03 415.899 707.122 415.446 707.376 415.006C707.642 414.56 708.086 414.156 708.71 413.796C709.495 413.343 710.384 413.07 711.377 412.976C712.37 412.87 713.363 412.87 714.356 412.976L712.399 411.846L713.196 411.386L722.376 416.686C722.988 417.039 723.409 417.416 723.64 417.816C723.871 418.216 723.941 418.616 723.848 419.016C723.779 419.416 723.56 419.809 723.19 420.196C722.844 420.582 722.388 420.939 721.822 421.266C721.302 421.566 720.782 421.806 720.263 421.986C719.755 422.172 719.247 422.306 718.739 422.386C718.254 422.466 717.751 422.502 717.232 422.496C716.735 422.489 716.239 422.449 715.742 422.376L715.933 421.806C716.903 421.952 717.832 421.929 718.721 421.736C719.622 421.549 720.419 421.256 721.112 420.856C721.573 420.589 721.943 420.302 722.22 419.996C722.509 419.683 722.676 419.366 722.722 419.046C722.792 418.726 722.728 418.409 722.532 418.096C722.347 417.776 722.006 417.473 721.51 417.186L719.535 416.046C719.755 416.599 719.737 417.156 719.483 417.716C719.218 418.269 718.75 418.739 718.08 419.126ZM717.543 418.576C717.925 418.356 718.225 418.103 718.444 417.816C718.664 417.516 718.802 417.216 718.86 416.916C718.929 416.609 718.912 416.319 718.808 416.046C718.715 415.766 718.548 415.529 718.306 415.336L715.344 413.626C714.859 413.506 714.356 413.43 713.837 413.396C713.306 413.356 712.786 413.363 712.278 413.416C711.781 413.463 711.302 413.553 710.84 413.686C710.378 413.806 709.974 413.966 709.628 414.166C709.085 414.48 708.716 414.826 708.519 415.206C708.323 415.586 708.259 415.969 708.329 416.356C708.41 416.736 708.606 417.109 708.918 417.476C709.229 417.829 709.622 418.143 710.095 418.416C710.615 418.716 711.198 418.946 711.845 419.106C712.492 419.266 713.155 419.356 713.837 419.376C714.518 419.396 715.182 419.339 715.829 419.206C716.475 419.073 717.047 418.863 717.543 418.576Z" fill="#C5C5C5"/>
<defs>
<linearGradient id="paint0_linear" x1="234.91" y1="536" x2="144.974" y2="588.866" gradientUnits="userSpaceOnUse">
<stop offset="0.473958" stop-color="white" stop-opacity="0"/>
<stop offset="1" stop-color="white"/>
</linearGradient>
<linearGradient id="paint1_linear" x1="117.252" y1="0.144645" x2="42.5701" y2="0.917782" gradientUnits="userSpaceOnUse">
<stop stop-color="white" stop-opacity="0"/>
<stop offset="1" stop-color="white"/>
</linearGradient>
</defs>
</svg>
