<svg width="397" height="34" viewBox="0 0 397 34" fill="none" xmlns="http://www.w3.org/2000/svg">
<path d="M0.728441 29.1655C1.48723 29.6813 2.39778 30.1057 3.46009 30.4395C4.52242 30.7427 5.70613 30.8945 7.01124 30.8945C8.77163 30.8945 10.1678 30.576 11.1998 29.939C12.2317 29.302 13.0209 28.3768 13.5672 27.1635C14.1135 25.9502 14.4626 24.4638 14.6143 22.7045C14.7965 20.9148 14.8875 18.8977 14.8875 16.653V0.2275H17.2094V16.653C17.2094 19.11 17.1032 21.3547 16.8907 23.387C16.6783 25.389 16.2078 27.1028 15.4794 28.5285C14.7813 29.9543 13.7645 31.0612 12.429 31.85C11.0935 32.6388 9.28762 33.033 7.01124 33.033C4.27959 33.033 1.94251 32.3658 0 31.031L0.728441 29.1655ZM38.222 30.6215C40.4073 30.6215 42.2135 30.212 43.6398 29.393C45.0967 28.574 46.2349 27.4972 47.0544 26.1625C47.9044 24.8278 48.4963 23.3112 48.8299 21.6125C49.1942 19.9138 49.3763 18.2 49.3763 16.471V0.2275H51.6982V16.471C51.6982 18.6247 51.4556 20.6873 50.9697 22.659C50.5145 24.6307 49.7558 26.3748 48.6934 27.8915C47.6313 29.3777 46.2501 30.5607 44.5503 31.4405C42.8509 32.3203 40.7566 32.76 38.2675 32.76C35.6878 32.76 33.5327 32.305 31.8026 31.395C30.0727 30.4548 28.6765 29.2262 27.6143 27.7095C26.5823 26.1625 25.8387 24.4183 25.3834 22.477C24.9585 20.5357 24.746 18.5337 24.746 16.471V0.2275H27.0679V16.471C27.0679 18.2607 27.2348 20.0048 27.5687 21.7035C27.9329 23.4022 28.54 24.9188 29.3898 26.2535C30.27 27.5578 31.4234 28.6195 32.8498 29.4385C34.2764 30.2273 36.0673 30.6215 38.222 30.6215ZM61.9812 4.5955V32.5325H59.6593V0.2275H61.4349L84.1076 28.665V0.2275H86.4295V32.5325H84.2897L61.9812 4.5955ZM116.406 30.4395V32.5325H94.8719V0.2275H115.997V2.3205H97.1939V15.015H113.629V17.017H97.1939V30.4395H116.406ZM122.749 32.5325V0.2275H125.071V30.4395H144.374V32.5325H122.749ZM168.005 5.5965C165.911 3.26082 162.952 2.093 159.128 2.093C155.971 2.093 153.664 2.69968 152.207 3.913C150.781 5.096 150.068 6.70368 150.068 8.736C150.068 9.76732 150.25 10.6318 150.614 11.3295C150.978 11.9968 151.54 12.5732 152.298 13.0585C153.088 13.5438 154.074 13.9533 155.258 14.287C156.441 14.6207 157.868 14.9695 159.537 15.3335C161.267 15.6975 162.831 16.107 164.227 16.562C165.653 16.9867 166.852 17.5327 167.823 18.2C168.825 18.8673 169.584 19.6863 170.1 20.657C170.646 21.6277 170.919 22.8258 170.919 24.2515C170.919 25.6772 170.631 26.9208 170.054 27.9825C169.508 29.0442 168.719 29.939 167.687 30.667C166.685 31.3648 165.471 31.8955 164.045 32.2595C162.649 32.6235 161.085 32.8055 159.355 32.8055C154.317 32.8055 150.053 31.1977 146.562 27.9825L147.791 26.117C149.157 27.5427 150.827 28.6802 152.799 29.5295C154.772 30.3485 156.988 30.758 159.446 30.758C162.269 30.758 164.47 30.2422 166.048 29.211C167.657 28.1797 168.461 26.6175 168.461 24.5245C168.461 23.4628 168.248 22.568 167.823 21.84C167.399 21.0817 166.761 20.4295 165.911 19.8835C165.092 19.3375 164.045 18.8673 162.77 18.473C161.495 18.0787 160.008 17.6995 158.308 17.3355C156.578 16.9715 155.045 16.5923 153.71 16.198C152.405 15.7733 151.297 15.2577 150.386 14.651C149.506 14.014 148.838 13.2557 148.383 12.376C147.928 11.4963 147.7 10.3892 147.7 9.0545C147.7 7.5985 147.973 6.30932 148.52 5.187C149.097 4.06468 149.886 3.12432 150.887 2.366C151.889 1.57732 153.088 0.985823 154.484 0.5915C155.88 0.197178 157.428 0 159.128 0C161.222 0 163.089 0.3185 164.727 0.9555C166.366 1.56218 167.854 2.5025 169.189 3.7765L168.005 5.5965ZM189.653 32.76C187.406 32.76 185.358 32.2897 183.506 31.3495C181.655 30.4093 180.062 29.1807 178.726 27.664C177.39 26.1473 176.358 24.4032 175.63 22.4315C174.902 20.4598 174.537 18.4427 174.537 16.38C174.537 14.2263 174.917 12.1637 175.676 10.192C176.465 8.22032 177.527 6.47618 178.863 4.9595C180.228 3.44282 181.837 2.24468 183.688 1.365C185.54 0.455 187.543 0 189.698 0C191.944 0 193.993 0.485322 195.844 1.456C197.726 2.39632 199.32 3.64 200.625 5.187C201.96 6.734 202.992 8.49332 203.721 10.465C204.449 12.4063 204.813 14.378 204.813 16.38C204.813 18.564 204.419 20.6418 203.63 22.6135C202.871 24.5852 201.808 26.3293 200.443 27.846C199.107 29.3322 197.514 30.5305 195.662 31.4405C193.811 32.3203 191.808 32.76 189.653 32.76ZM176.859 16.38C176.859 18.2303 177.163 20.02 177.77 21.749C178.407 23.4477 179.288 24.9643 180.41 26.299C181.564 27.6033 182.93 28.6498 184.508 29.4385C186.086 30.2273 187.816 30.6215 189.698 30.6215C191.64 30.6215 193.386 30.212 194.934 29.393C196.512 28.574 197.847 27.4972 198.94 26.1625C200.063 24.7975 200.928 23.2657 201.535 21.567C202.142 19.8683 202.446 18.1393 202.446 16.38C202.446 14.5297 202.127 12.7552 201.49 11.0565C200.852 9.3275 199.957 7.81082 198.804 6.5065C197.681 5.17182 196.345 4.11018 194.797 3.3215C193.249 2.53282 191.549 2.1385 189.698 2.1385C187.756 2.1385 185.995 2.548 184.417 3.367C182.839 4.186 181.488 5.278 180.365 6.643C179.242 7.97768 178.377 9.49432 177.77 11.193C177.163 12.8917 176.859 14.6207 176.859 16.38ZM211.047 32.5325V0.2275H213.369V30.4395H232.673V32.5325H211.047ZM237.501 32.5325V0.2275H239.823V32.5325H237.501ZM267.108 5.5965C265.014 3.26082 262.054 2.093 258.23 2.093C255.074 2.093 252.767 2.69968 251.31 3.913C249.884 5.096 249.17 6.70368 249.17 8.736C249.17 9.76732 249.352 10.6318 249.716 11.3295C250.081 11.9968 250.642 12.5732 251.401 13.0585C252.19 13.5438 253.176 13.9533 254.36 14.287C255.544 14.6207 256.971 14.9695 258.64 15.3335C260.37 15.6975 261.933 16.107 263.329 16.562C264.756 16.9867 265.955 17.5327 266.926 18.2C267.927 18.8673 268.686 19.6863 269.202 20.657C269.749 21.6277 270.022 22.8258 270.022 24.2515C270.022 25.6772 269.734 26.9208 269.157 27.9825C268.61 29.0442 267.821 29.939 266.789 30.667C265.788 31.3648 264.574 31.8955 263.147 32.2595C261.751 32.6235 260.188 32.8055 258.458 32.8055C253.419 32.8055 249.155 31.1977 245.664 27.9825L246.894 26.117C248.26 27.5427 249.929 28.6802 251.902 29.5295C253.875 30.3485 256.09 30.758 258.549 30.758C261.371 30.758 263.572 30.2422 265.15 29.211C266.759 28.1797 267.563 26.6175 267.563 24.5245C267.563 23.4628 267.351 22.568 266.926 21.84C266.501 21.0817 265.864 20.4295 265.014 19.8835C264.194 19.3375 263.147 18.8673 261.872 18.473C260.597 18.0787 259.11 17.6995 257.411 17.3355C255.681 16.9715 254.148 16.5923 252.812 16.198C251.507 15.7733 250.399 15.2577 249.489 14.651C248.609 14.014 247.941 13.2557 247.486 12.376C247.03 11.4963 246.803 10.3892 246.803 9.0545C246.803 7.5985 247.076 6.30932 247.622 5.187C248.199 4.06468 248.988 3.12432 249.99 2.366C250.991 1.57732 252.19 0.985823 253.586 0.5915C254.983 0.197178 256.531 0 258.23 0C260.324 0 262.191 0.3185 263.83 0.9555C265.469 1.56218 266.956 2.5025 268.292 3.7765L267.108 5.5965ZM297.026 16.1525C297.026 14.2112 297.36 12.285 298.028 10.374C298.726 8.43268 299.727 6.70368 301.032 5.187C302.337 3.67032 303.931 2.44182 305.813 1.5015C307.725 0.530823 309.895 0.0454998 312.323 0.0454998C315.207 0.0454998 317.665 0.712822 319.699 2.0475C321.732 3.35182 323.25 5.03532 324.251 7.098L322.339 8.19C321.763 7.06768 321.08 6.12732 320.291 5.369C319.532 4.61068 318.697 4.004 317.787 3.549C316.906 3.06368 315.981 2.71482 315.009 2.5025C314.038 2.29018 313.082 2.184 312.141 2.184C310.077 2.184 308.256 2.60868 306.678 3.458C305.1 4.277 303.764 5.35382 302.671 6.6885C301.579 8.02318 300.744 9.53982 300.167 11.2385C299.621 12.9068 299.348 14.5903 299.348 16.289C299.348 18.2 299.682 20.02 300.35 21.749C301.017 23.478 301.928 25.0098 303.081 26.3445C304.235 27.6488 305.6 28.6953 307.179 29.484C308.757 30.2728 310.457 30.667 312.278 30.667C313.249 30.667 314.251 30.5458 315.283 30.303C316.314 30.0602 317.301 29.6813 318.242 29.1655C319.183 28.6498 320.063 27.9977 320.882 27.209C321.702 26.39 322.385 25.4345 322.931 24.3425L324.933 25.298C324.388 26.5113 323.644 27.5882 322.704 28.5285C321.763 29.4687 320.716 30.2575 319.562 30.8945C318.409 31.5315 317.179 32.0167 315.874 32.3505C314.6 32.6537 313.34 32.8055 312.096 32.8055C309.88 32.8055 307.846 32.3203 305.995 31.3495C304.174 30.3787 302.596 29.12 301.26 27.573C299.925 25.9957 298.877 24.2212 298.119 22.2495C297.39 20.2475 297.026 18.2152 297.026 16.1525ZM343.265 32.76C341.018 32.76 338.969 32.2897 337.119 31.3495C335.265 30.4093 333.672 29.1807 332.338 27.664C331.002 26.1473 329.971 24.4032 329.242 22.4315C328.514 20.4598 328.15 18.4427 328.15 16.38C328.15 14.2263 328.527 12.1637 329.288 10.192C330.075 8.22032 331.138 6.47618 332.475 4.9595C333.841 3.44282 335.447 2.24468 337.301 1.365C339.151 0.455 341.154 0 343.31 0C345.554 0 347.603 0.485322 349.457 1.456C351.336 2.39632 352.93 3.64 354.237 5.187C355.57 6.734 356.604 8.49332 357.333 10.465C358.061 12.4063 358.425 14.378 358.425 16.38C358.425 18.564 358.029 20.6418 357.242 22.6135C356.481 24.5852 355.421 26.3293 354.055 27.846C352.718 29.3322 351.125 30.5305 349.274 31.4405C347.421 32.3203 345.418 32.76 343.265 32.76ZM330.472 16.38C330.472 18.2303 330.774 20.02 331.382 21.749C332.02 23.4477 332.898 24.9643 334.023 26.299C335.174 27.6033 336.54 28.6498 338.12 29.4385C339.697 30.2273 341.427 30.6215 343.31 30.6215C345.252 30.6215 346.998 30.212 348.546 29.393C350.123 28.574 351.46 27.4972 352.552 26.1625C353.674 24.7975 354.539 23.2657 355.147 21.567C355.752 19.8683 356.058 18.1393 356.058 16.38C356.058 14.5297 355.739 12.7552 355.102 11.0565C354.465 9.3275 353.567 7.81082 352.416 6.5065C351.291 5.17182 349.957 4.11018 348.409 3.3215C346.861 2.53282 345.161 2.1385 343.31 2.1385C341.366 2.1385 339.606 2.548 338.029 3.367C336.449 4.186 335.099 5.278 333.977 6.643C332.852 7.97768 331.987 9.49432 331.382 11.193C330.774 12.8917 330.472 14.6207 330.472 16.38ZM393.934 32.5325V4.5955L381.186 26.39H379.729L366.981 4.5955V32.5325H364.66V0.2275H366.981L380.458 23.3415L393.934 0.2275H396.256V32.5325H393.934Z" fill="#333333"/>
<path d="M288.697 19.5325H278.941V32.5325H288.697V19.5325Z" fill="#EB5757"/>
</svg>
