<svg width="32" height="32" viewBox="0 0 32 32" fill="none" xmlns="http://www.w3.org/2000/svg">
<rect width="32" height="32" fill="#FF3333"/>
<path d="M9.06035 17.75C9.06035 20.375 8.06035 21.1 6.46035 21.1C5.71035 21.1 5.03535 20.975 4.51035 20.8L4.08535 23.875C4.83535 24.125 5.98535 24.275 6.86035 24.275C10.5604 24.275 12.8604 22.6 12.8604 17.8V7.15H9.06035V17.75ZM15.3887 23.225C16.3387 23.75 18.2387 24.25 20.1637 24.25C24.7887 24.25 26.9637 21.85 26.9637 19.025C26.9637 16.65 25.5637 15.1 22.5887 14C20.4137 13.175 19.4637 12.7 19.4637 11.625C19.4637 10.75 20.2637 10 21.9137 10C23.5637 10 24.7637 10.475 25.4387 10.8L26.2887 7.725C25.2887 7.275 23.8887 6.875 21.9887 6.875C18.0137 6.875 15.6137 9.075 15.6137 11.95C15.6137 14.4 17.4387 15.95 20.2387 16.925C22.2637 17.65 23.0637 18.25 23.0637 19.3C23.0637 20.4 22.1387 21.125 20.3887 21.125C18.7637 21.125 17.1887 20.6 16.1637 20.075L15.3887 23.225Z" fill="white"/>
</svg>
