<svg width="291" height="44" viewBox="0 0 291 44" fill="none" xmlns="http://www.w3.org/2000/svg">
<g clip-path="url(#clip0)">
<path d="M80.8641 22.4209C82.0807 26.3202 85.6147 29.1266 89.815 29.1266C95.058 29.1266 99.2872 24.7842 99.2872 19.4374V0.708963C99.2872 0.413562 99.0845 0.177241 98.7369 0.177241C98.5051 0.177241 98.3024 0.413562 98.3024 0.708963V19.4374C98.2734 24.1934 94.4787 28.004 89.815 28.0926C86.1072 28.0926 82.8918 25.5817 81.849 22.096C81.7042 21.8006 81.4724 21.6824 81.1538 21.7711C80.8931 21.8597 80.7482 22.1846 80.8641 22.4209ZM106.5 20.9439C106.5 25.4931 110.063 29.1266 114.437 29.1266C118.869 29.1266 122.461 25.4931 122.461 20.9439V9.39376C122.461 9.09835 122.229 8.86203 121.94 8.86203C121.708 8.86203 121.418 9.09835 121.418 9.39376V20.9439C121.418 24.9023 118.29 28.0926 114.437 28.0926C110.642 28.0926 107.514 24.9023 107.514 20.9439V9.39376C107.514 9.09835 107.253 8.86203 107.021 8.86203C106.703 8.86203 106.5 9.09835 106.5 9.39376V20.9439ZM145.78 28.5948C145.78 28.8902 145.953 29.1266 146.272 29.1266C146.562 29.1266 146.793 28.8902 146.793 28.5948V17.0446C146.793 12.4955 143.201 8.86203 138.827 8.86203C135.815 8.86203 133.179 10.5458 131.788 13.0863V9.36422C131.788 9.03928 131.586 8.86203 131.325 8.86203C131.035 8.86203 130.775 9.03928 130.775 9.36422V16.7197V17.0446V28.5948V28.6834C130.775 28.7425 130.832 28.8312 130.861 28.8902C130.861 28.9198 130.861 28.9198 130.919 28.9493C130.948 29.0084 130.977 29.0379 131.035 29.0379C131.064 29.097 131.122 29.097 131.151 29.1266H131.238H131.325C131.47 29.1266 131.586 29.0379 131.673 28.9198C131.759 28.8311 131.788 28.713 131.788 28.5948V17.0446C131.788 13.0272 135.004 9.89594 138.827 9.89594C142.622 9.89594 145.78 13.0272 145.78 17.0446V28.5948ZM163.884 29.1266C167.215 29.1266 170.17 27.236 171.879 24.5478C172.024 24.282 171.937 23.957 171.734 23.8389C171.473 23.7207 171.184 23.7207 171.01 23.957C169.504 26.4384 166.868 28.0926 163.884 28.0926C159.104 28.0631 155.252 23.957 155.252 18.9943V18.8761H172.922C173.154 18.8761 173.356 18.6103 173.414 18.374V18.3444V18.2558V18.1967C173.038 12.9681 168.953 8.86203 163.884 8.86203C158.554 8.86203 154.296 13.3817 154.238 18.9943C154.296 24.5478 158.554 29.0379 163.884 29.1266ZM163.884 9.92548C168.229 9.92548 171.879 13.3817 172.4 17.8718H155.281C155.802 13.3817 159.452 9.92548 163.884 9.92548ZM180.627 28.5948C180.627 28.8902 180.83 29.1266 181.148 29.1266C181.438 29.1266 181.641 28.8902 181.641 28.5948V0.708963C181.641 0.413562 181.438 0.177241 181.148 0.177241C180.83 0.177241 180.627 0.413562 180.627 0.708963V28.5948ZM212.056 29.3333C218.111 29.3333 222.803 25.7294 222.803 21.1507C222.803 15.6858 217.908 14.5337 213.099 13.4112C208.609 12.3478 204.351 11.3139 204.351 6.88285C204.351 3.69251 207.827 1.09298 212.085 1.09298C217.213 1.09298 219.936 4.1947 219.965 4.22424C220.138 4.43102 220.457 4.43102 220.689 4.28332C220.891 4.07654 220.949 3.72205 220.747 3.51527C220.602 3.36757 217.705 0 212.085 0C207.219 0 203.308 3.10171 203.308 6.88285C203.308 12.1705 208.175 13.3226 212.868 14.4451C217.444 15.5086 221.789 16.5425 221.789 21.1507C221.789 25.1682 217.531 28.2994 212.056 28.2994C206.495 28.2994 202.237 24.4001 202.208 24.3706C202.005 24.1638 201.686 24.1934 201.483 24.4001C201.281 24.6069 201.31 24.9614 201.512 25.1682C201.686 25.3159 206.089 29.3333 212.056 29.3333ZM228.713 18.9943C228.713 24.5478 232.913 29.1266 238.098 29.1266C243.283 29.1266 247.512 24.5478 247.512 18.9943C247.512 13.4112 243.283 8.86203 238.098 8.86203C232.913 8.86203 228.713 13.4112 228.713 18.9943ZM229.726 18.9943C229.726 13.9429 233.521 9.89594 238.098 9.89594C242.675 9.89594 246.498 13.9429 246.498 18.9943C246.498 23.9866 242.675 28.0926 238.098 28.0926C233.521 28.0926 229.726 23.9866 229.726 18.9943ZM255.276 28.5948C255.276 28.8902 255.478 29.1266 255.826 29.1266C256.087 29.1266 256.289 28.8902 256.289 28.5948V0.708963C256.289 0.413562 256.087 0.177241 255.826 0.177241C255.478 0.177241 255.276 0.413562 255.276 0.708963V28.5948ZM265.153 28.5948C265.153 28.8902 265.356 29.1266 265.675 29.1266C265.906 29.1266 266.167 28.8902 266.167 28.5948V9.36422C266.167 9.03928 265.906 8.86203 265.675 8.86203C265.356 8.86203 265.153 9.03928 265.153 9.36422V28.5948ZM265.153 3.86975C265.153 4.10608 265.356 4.3424 265.675 4.3424C265.906 4.3424 266.167 4.10608 266.167 3.86975V2.86539C266.167 2.54045 265.906 2.33367 265.675 2.33367C265.356 2.33367 265.153 2.54045 265.153 2.86539V3.86975ZM282.91 29.1266C287.168 29.1266 290.529 26.5566 290.529 23.3071C290.529 19.3783 286.879 18.4921 283.634 17.7536C280.419 16.956 277.667 16.3061 277.667 13.3817C277.667 11.2252 280.013 9.51192 282.91 9.51192C286.386 9.51192 288.211 11.5797 288.269 11.6388C288.414 11.8456 288.733 11.8751 288.993 11.6683C289.196 11.4616 289.225 11.1366 289.022 10.9298C288.935 10.8117 286.879 8.44847 282.91 8.44847C279.463 8.44847 276.624 10.6344 276.624 13.3817C276.624 17.1628 280.216 17.9899 283.403 18.7875C286.502 19.526 289.486 20.2054 289.486 23.3071C289.486 25.9362 286.502 28.0926 282.91 28.0926C279.087 28.0926 276.161 25.434 276.132 25.4045C275.929 25.1977 275.61 25.2273 275.408 25.434C275.205 25.6408 275.234 25.9953 275.437 26.2021C275.553 26.3202 278.681 29.1266 282.91 29.1266Z" fill="white"/>
<path d="M0.30806 11.4751C0.30806 11.4751 -3.03576 38.6785 24.872 38.6785C24.872 38.6785 31.8272 11.4751 0.30806 11.4751V11.4751ZM71.2194 0.0758057C33.2561 0.0758057 29.7443 24.4249 30.441 36.9264C36.8546 18.0615 54.3388 13.8976 54.3388 13.8976C37.6478 24.1881 34.2244 42.7646 34.0018 44.0758C76.3946 42.4073 71.2194 0.0758057 71.2194 0.0758057Z" fill="white"/>
<path d="M83.788 39.9742H81.1531V41.6872H83.2375V42.0039H81.1531V44.1007H80.8237V39.6672H83.788V39.9742ZM91.2646 39.6672V42.4837C91.2646 43.0275 91.1187 43.445 90.827 43.7361C90.5384 44.024 90.1259 44.1679 89.5895 44.1679C89.0531 44.1679 88.6391 44.024 88.3473 43.7361C88.0556 43.445 87.9098 43.0275 87.9098 42.4837V39.6672H88.2391V42.4166C88.2391 42.89 88.3536 43.2482 88.5826 43.4914C88.8116 43.7377 89.1472 43.8608 89.5895 43.8608C90.0287 43.8608 90.3627 43.7377 90.5917 43.4914C90.8207 43.2482 90.9352 42.89 90.9352 42.4166V39.6672H91.2646ZM96.205 43.7937H98.8117V44.1007H95.8757V39.6672H96.205V43.7937ZM103.263 43.7937H105.874V44.1007H102.933V39.6672H103.263V43.7937ZM116.517 39.6C117.336 39.6 117.883 39.9263 118.159 40.5788L117.877 40.8139C117.767 40.4972 117.603 40.2669 117.383 40.123C117.167 39.979 116.881 39.9071 116.527 39.9071C116.27 39.9071 116.047 39.9486 115.859 40.0318C115.67 40.1118 115.528 40.2205 115.43 40.3581C115.33 40.4988 115.28 40.6556 115.28 40.8283C115.28 40.9979 115.322 41.1386 115.407 41.2506C115.489 41.3625 115.63 41.4585 115.83 41.5385C116.031 41.6152 116.307 41.6856 116.659 41.7496C117.223 41.8488 117.625 41.9927 117.863 42.1814C118.098 42.367 118.216 42.6261 118.216 42.9588C118.216 43.1955 118.149 43.4066 118.014 43.5921C117.879 43.7745 117.687 43.9152 117.44 44.0144C117.189 44.1167 116.903 44.1679 116.583 44.1679C116.128 44.1679 115.744 44.0751 115.43 43.8896C115.114 43.7041 114.899 43.4434 114.786 43.1075L115.078 42.8772C115.165 43.1971 115.341 43.4402 115.605 43.6065C115.871 43.7761 116.201 43.8608 116.593 43.8608C116.969 43.8608 117.276 43.7825 117.515 43.6257C117.756 43.469 117.877 43.253 117.877 42.9779C117.877 42.7412 117.778 42.5541 117.581 42.4166C117.386 42.2758 117.047 42.1638 116.564 42.0807C116.157 42.0071 115.834 41.9191 115.595 41.8168C115.36 41.7144 115.191 41.5865 115.087 41.4329C114.983 41.2826 114.932 41.0922 114.932 40.8619C114.932 40.6348 114.996 40.4253 115.125 40.2333C115.253 40.0382 115.438 39.8847 115.68 39.7727C115.918 39.6576 116.197 39.6 116.517 39.6ZM125.311 39.6672V39.9742H123.726V44.1007H123.396V39.9742H121.806V39.6672H125.311ZM131.767 44.1007L131.221 42.7092H129.141L128.6 44.1007H128.252L129.988 39.6672H130.379L132.115 44.1007H131.767ZM129.264 42.4022H131.103L130.346 40.4685L130.186 39.9982H130.181L130.021 40.4541L129.264 42.4022ZM139.549 42.9779C139.424 43.3554 139.209 43.6481 138.905 43.856C138.6 44.064 138.235 44.1679 137.808 44.1679C137.413 44.1679 137.067 44.0751 136.769 43.8896C136.471 43.7041 136.24 43.4386 136.077 43.0931C135.914 42.7476 135.832 42.3446 135.832 41.8839C135.832 41.4233 135.914 41.0203 136.077 40.6748C136.24 40.3293 136.471 40.0638 136.769 39.8783C137.067 39.6927 137.412 39.6 137.804 39.6C138.673 39.6 139.234 39.9646 139.488 40.694L139.163 40.8475C139.063 40.534 138.902 40.2989 138.679 40.1422C138.459 39.9854 138.174 39.9071 137.823 39.9071C137.496 39.9071 137.209 39.987 136.961 40.147C136.714 40.3069 136.522 40.5356 136.387 40.8331C136.249 41.1306 136.18 41.4809 136.18 41.8839C136.18 42.287 136.248 42.6373 136.383 42.9348C136.518 43.2323 136.706 43.461 136.947 43.6209C137.192 43.7809 137.479 43.8608 137.808 43.8608C138.16 43.8608 138.458 43.7729 138.702 43.5969C138.95 43.421 139.123 43.1731 139.22 42.8532L139.549 42.9779ZM146.602 44.1007L145.007 41.7112L144.137 42.6085V44.1007H143.808V39.6672H144.137V42.1526L146.522 39.6672H146.96L145.238 41.4617L147.002 44.1007H146.602ZM158.544 40.9915L157.669 44.1007H157.26L155.905 39.6672H156.257L157.467 43.8272L158.605 39.6672H158.986L160.125 43.832L161.344 39.6672H161.683L160.323 44.1007H159.913L159.038 40.9915L158.794 40.0318H158.789L158.544 40.9915ZM166.185 43.7937H168.933V44.1007H165.856V39.6672H168.83V39.9742H166.185V41.6872H168.275V42.0039H166.185V43.7937ZM173.182 44.1007V39.6672H174.716C175.19 39.6672 175.544 39.7679 175.779 39.9694C176.015 40.171 176.132 40.4621 176.132 40.8427C176.132 41.1018 176.063 41.321 175.925 41.5001C175.787 41.6792 175.591 41.796 175.337 41.8504V41.8552C175.616 41.8999 175.839 42.0167 176.005 42.2054C176.168 42.3942 176.25 42.6277 176.25 42.906C176.25 43.2866 176.118 43.5809 175.855 43.7889C175.588 43.9968 175.208 44.1007 174.716 44.1007H173.182ZM173.511 41.7112H174.725C175.431 41.7112 175.784 41.4217 175.784 40.8427C175.784 40.2637 175.431 39.9742 174.725 39.9742H173.511V41.7112ZM173.511 43.7937H174.782C175.152 43.7937 175.431 43.7169 175.619 43.5633C175.808 43.4098 175.902 43.1907 175.902 42.906C175.902 42.6149 175.808 42.3942 175.619 42.2438C175.431 42.0935 175.152 42.0183 174.782 42.0183H173.511V43.7937ZM187.364 39.6672C188.057 39.6672 188.592 39.8543 188.968 40.2285C189.344 40.6028 189.533 41.1434 189.533 41.8504C189.533 42.5765 189.344 43.1331 188.968 43.5202C188.592 43.9072 188.057 44.1007 187.364 44.1007H185.994V39.6672H187.364ZM187.392 43.7937C187.972 43.7937 188.416 43.6257 188.723 43.2898C189.034 42.9572 189.189 42.4773 189.189 41.8504C189.189 41.249 189.034 40.7867 188.723 40.4637C188.416 40.1374 187.972 39.9742 187.392 39.9742H186.324V43.7937H187.392ZM194.257 43.7937H197V44.1007H193.927V39.6672H196.896V39.9742H194.257V41.6872H196.341V42.0039H194.257V43.7937ZM204.458 39.6672L202.787 44.1007H202.397L200.717 39.6672H201.075L202.359 43.0979L202.59 43.7841L202.82 43.0979L204.109 39.6672H204.458ZM208.918 43.7937H211.666V44.1007H208.589V39.6672H211.558V39.9742H208.918V41.6872H211.007V42.0039H208.918V43.7937ZM216.244 43.7937H218.851V44.1007H215.915V39.6672H216.244V43.7937ZM224.445 39.6C224.853 39.6 225.207 39.6927 225.509 39.8783C225.81 40.0638 226.042 40.3277 226.205 40.67C226.365 41.0123 226.445 41.4169 226.445 41.8839C226.445 42.351 226.365 42.7556 226.205 43.0979C226.042 43.4402 225.81 43.7041 225.509 43.8896C225.207 44.0751 224.853 44.1679 224.445 44.1679C224.037 44.1679 223.683 44.0751 223.382 43.8896C223.081 43.7041 222.849 43.4402 222.685 43.0979C222.522 42.7556 222.441 42.351 222.441 41.8839C222.441 41.4169 222.522 41.0123 222.685 40.67C222.849 40.3277 223.081 40.0638 223.382 39.8783C223.683 39.6927 224.037 39.6 224.445 39.6ZM224.445 39.9071C224.106 39.9071 223.813 39.987 223.565 40.147C223.318 40.3069 223.126 40.5356 222.991 40.8331C222.856 41.1306 222.789 41.4809 222.789 41.8839C222.789 42.287 222.856 42.6373 222.991 42.9348C223.126 43.2323 223.318 43.461 223.565 43.6209C223.813 43.7809 224.106 43.8608 224.445 43.8608C224.784 43.8608 225.077 43.7809 225.325 43.6209C225.576 43.461 225.769 43.2323 225.904 42.9348C226.039 42.6373 226.106 42.287 226.106 41.8839C226.106 41.4809 226.039 41.1306 225.904 40.8331C225.769 40.5356 225.576 40.3069 225.325 40.147C225.077 39.987 224.784 39.9071 224.445 39.9071ZM232.275 39.6672C232.73 39.6672 233.089 39.7823 233.352 40.0126C233.619 40.2429 233.752 40.5596 233.752 40.9627C233.752 41.3657 233.619 41.684 233.352 41.9175C233.089 42.151 232.73 42.2678 232.275 42.2678H231.164V44.1007H230.835V39.6672H232.275ZM232.237 41.9511C232.613 41.9511 232.902 41.8664 233.103 41.6968C233.304 41.5273 233.404 41.2826 233.404 40.9627C233.404 40.6492 233.304 40.4061 233.103 40.2333C232.902 40.0606 232.613 39.9742 232.237 39.9742H231.164V41.9511H232.237ZM238.326 43.7937H241.069V44.1007H237.996V39.6672H240.965V39.9742H238.326V41.6872H240.41V42.0039H238.326V43.7937ZM248.588 44.1007H248.197L246.955 42.1814H246.931H245.647V44.1007H245.318V39.6672H246.931C247.367 39.6672 247.714 39.7791 247.971 40.003C248.228 40.2269 248.357 40.534 248.357 40.9243C248.357 41.2474 248.265 41.5145 248.079 41.7256C247.894 41.9399 247.642 42.0775 247.322 42.1383L248.588 44.1007ZM245.647 39.9742V41.8648H246.927C247.278 41.8648 247.546 41.7832 247.731 41.62C247.919 41.4601 248.014 41.2282 248.014 40.9243C248.014 40.6204 247.919 40.3853 247.731 40.219C247.546 40.0558 247.278 39.9742 246.927 39.9742H245.647Z" fill="white"/>
</g>
<defs>
<clipPath id="clip0">
<rect width="291" height="44" fill="white"/>
</clipPath>
</defs>
</svg>
